<svg width="131" height="30" viewBox="0 0 131 30" fill="none" xmlns="http://www.w3.org/2000/svg">
<path fill-rule="evenodd" clip-rule="evenodd" d="M11.975 3.05787C15.0002 3.05539 17.9151 4.19422 20.1374 6.24691C22.3596 8.2996 23.7258 11.1151 23.963 14.131C24.2002 17.1469 23.2909 20.1413 21.4169 22.5162C19.5428 24.891 16.8418 26.4715 13.8534 26.942V18.5454H16.6509L17.1856 15.073H13.8513V12.8202C13.8513 11.871 14.3179 10.9418 15.8098 10.9418H17.3257V7.98808C17.3257 7.98808 17.1655 7.96005 16.9052 7.924C16.3159 7.84293 15.7232 7.78947 15.129 7.7638C14.9648 7.75724 14.8006 7.75391 14.6363 7.75379C11.8929 7.75379 10.0966 9.41588 10.0966 12.4277V15.073H7.04877V18.5454H10.1006V26.942C7.12204 26.4604 4.43356 24.876 2.56915 22.5037C0.704741 20.1314 -0.199199 17.1446 0.036863 14.1366C0.272925 11.1286 1.63172 8.31937 3.84337 6.26693C6.05502 4.21449 8.95773 3.06896 11.975 3.05787Z" fill="black"/>
<path d="M40.92 22C40.6533 22 40.46 21.94 40.34 21.82C40.2333 21.7 40.18 21.52 40.18 21.28V9.14C40.18 8.88667 40.2333 8.7 40.34 8.58C40.46 8.46 40.6533 8.4 40.92 8.4H49.24C49.5067 8.4 49.6867 8.45333 49.78 8.56C49.8867 8.66667 49.94 8.84667 49.94 9.1V9.64C49.94 9.89333 49.8867 10.08 49.78 10.2C49.6867 10.3067 49.5067 10.36 49.24 10.36H42.74V14.22H47.46C47.7267 14.22 47.9133 14.2733 48.02 14.38C48.1267 14.4867 48.18 14.6667 48.18 14.92V15.46C48.18 15.7133 48.1267 15.9 48.02 16.02C47.9133 16.1267 47.7267 16.18 47.46 16.18H42.74V21.28C42.74 21.52 42.68 21.7 42.56 21.82C42.4533 21.94 42.26 22 41.98 22H40.92ZM53.3959 22.3C52.0893 22.3 51.0493 21.9067 50.2759 21.12C49.5026 20.32 49.1159 19.2 49.1159 17.76C49.1159 16.64 49.3626 15.6533 49.8559 14.8C50.3493 13.9333 51.0493 13.2667 51.9559 12.8C52.8759 12.3333 53.9426 12.1 55.1559 12.1C56.8493 12.1 58.2826 12.5 59.4559 13.3V21.46C59.4559 21.66 59.4093 21.8 59.3159 21.88C59.2359 21.96 59.0893 22 58.8759 22H57.7759C57.6293 22 57.5159 21.9733 57.4359 21.92C57.3693 21.8533 57.3226 21.7533 57.2959 21.62L57.1359 20.84C56.7226 21.3467 56.2093 21.72 55.5959 21.96C54.9959 22.1867 54.2626 22.3 53.3959 22.3ZM54.3559 20.48C55.0626 20.48 55.6826 20.2733 56.2159 19.86C56.7626 19.4467 57.0359 18.9 57.0359 18.22V14.32C56.7559 14.1733 56.4693 14.0733 56.1759 14.02C55.8959 13.9533 55.5493 13.92 55.1359 13.92C54.0826 13.92 53.2359 14.2533 52.5959 14.92C51.9559 15.5867 51.6359 16.5067 51.6359 17.68C51.6359 18.64 51.8559 19.3467 52.2959 19.8C52.7493 20.2533 53.4359 20.48 54.3559 20.48ZM66.7677 22.3C64.9943 22.3 63.6077 21.8667 62.6077 21C61.621 20.12 61.1277 18.8667 61.1277 17.24C61.1277 16.2267 61.3543 15.3333 61.8077 14.56C62.261 13.7867 62.9077 13.1867 63.7477 12.76C64.601 12.32 65.5943 12.1 66.7277 12.1C67.5677 12.1 68.281 12.18 68.8677 12.34C69.4543 12.5 70.001 12.76 70.5077 13.12C70.6277 13.2 70.6877 13.2867 70.6877 13.38C70.6877 13.46 70.6543 13.5533 70.5877 13.66L70.0477 14.6C69.9677 14.7333 69.8943 14.8 69.8277 14.8C69.761 14.8 69.6677 14.76 69.5477 14.68C69.1343 14.4267 68.721 14.24 68.3077 14.12C67.9077 13.9867 67.4277 13.92 66.8677 13.92C65.8677 13.92 65.081 14.22 64.5077 14.82C63.9343 15.4067 63.6477 16.2133 63.6477 17.24C63.6477 18.32 63.9343 19.1333 64.5077 19.68C65.081 20.2133 65.921 20.48 67.0277 20.48C67.5877 20.48 68.0743 20.4133 68.4877 20.28C68.901 20.1467 69.301 19.9533 69.6877 19.7C69.7943 19.6333 69.881 19.6 69.9477 19.6C70.0277 19.6 70.1077 19.6667 70.1877 19.8L70.7677 20.78C70.821 20.8467 70.8477 20.92 70.8477 21C70.8477 21.0933 70.781 21.1867 70.6477 21.28C70.1143 21.6267 69.541 21.88 68.9277 22.04C68.3143 22.2133 67.5943 22.3 66.7677 22.3ZM78.0163 22.3C76.9763 22.3 76.0363 22.1267 75.1963 21.78C74.3563 21.42 73.6829 20.8733 73.1763 20.14C72.6829 19.3933 72.4363 18.4667 72.4363 17.36C72.4363 15.64 72.8963 14.3333 73.8163 13.44C74.7363 12.5467 76.0429 12.1 77.7363 12.1C79.4163 12.1 80.6829 12.5333 81.5363 13.4C82.4029 14.2667 82.8363 15.52 82.8363 17.16C82.8363 17.6267 82.6229 17.86 82.1963 17.86H74.8563C74.8563 18.74 75.1629 19.42 75.7763 19.9C76.3896 20.3667 77.2429 20.6 78.3363 20.6C79.3896 20.6 80.3363 20.36 81.1763 19.88C81.2696 19.8267 81.3429 19.8 81.3963 19.8C81.4896 19.8 81.5629 19.86 81.6163 19.98L82.0963 20.84C82.1363 20.92 82.1563 20.9933 82.1563 21.06C82.1563 21.1533 82.0963 21.24 81.9763 21.32C81.4296 21.6533 80.8363 21.9 80.1963 22.06C79.5696 22.22 78.8429 22.3 78.0163 22.3ZM80.5163 16.38C80.5163 15.5533 80.2829 14.9067 79.8163 14.44C79.3629 13.9733 78.6763 13.74 77.7563 13.74C76.8229 13.74 76.1029 13.98 75.5963 14.46C75.1029 14.94 74.8563 15.58 74.8563 16.38H80.5163ZM89.5094 22.3C88.6027 22.3 87.716 22.18 86.8494 21.94C85.9827 21.6867 85.296 21.3733 84.7894 21V9.14C84.7894 8.88667 84.8427 8.7 84.9494 8.58C85.0694 8.46 85.2627 8.4 85.5294 8.4H86.5494C86.816 8.4 87.0094 8.46 87.1294 8.58C87.2494 8.7 87.3094 8.88667 87.3094 9.14V13.04C87.656 12.7333 88.1094 12.5 88.6694 12.34C89.2294 12.18 89.8294 12.1 90.4694 12.1C91.976 12.1 93.136 12.5133 93.9494 13.34C94.7627 14.1667 95.1694 15.3267 95.1694 16.82C95.1694 18.5533 94.6894 19.9 93.7294 20.86C92.7827 21.82 91.376 22.3 89.5094 22.3ZM89.3894 20.48C90.496 20.48 91.3094 20.1867 91.8294 19.6C92.3627 19 92.6294 18.0933 92.6294 16.88C92.6294 15.8667 92.416 15.1267 91.9894 14.66C91.576 14.18 90.876 13.94 89.8894 13.94C89.2094 13.94 88.6094 14.1133 88.0894 14.46C87.5694 14.7933 87.3094 15.2867 87.3094 15.94V20C87.536 20.1467 87.8427 20.2667 88.2294 20.36C88.616 20.44 89.0027 20.48 89.3894 20.48ZM101.645 22.3C99.912 22.3 98.572 21.8467 97.6253 20.94C96.692 20.02 96.2253 18.7733 96.2253 17.2C96.2253 15.6267 96.692 14.3867 97.6253 13.48C98.572 12.56 99.912 12.1 101.645 12.1C103.379 12.1 104.719 12.56 105.665 13.48C106.612 14.3867 107.085 15.6267 107.085 17.2C107.085 18.7733 106.612 20.02 105.665 20.94C104.719 21.8467 103.379 22.3 101.645 22.3ZM101.645 20.42C102.592 20.42 103.312 20.1467 103.805 19.6C104.299 19.0533 104.545 18.2533 104.545 17.2C104.545 16.16 104.299 15.3733 103.805 14.84C103.312 14.2933 102.592 14.02 101.645 14.02C100.712 14.02 99.992 14.2933 99.4853 14.84C98.992 15.3733 98.7453 16.16 98.7453 17.2C98.7453 18.24 98.992 19.04 99.4853 19.6C99.992 20.1467 100.712 20.42 101.645 20.42ZM113.559 22.3C111.826 22.3 110.486 21.8467 109.539 20.94C108.606 20.02 108.139 18.7733 108.139 17.2C108.139 15.6267 108.606 14.3867 109.539 13.48C110.486 12.56 111.826 12.1 113.559 12.1C115.293 12.1 116.633 12.56 117.579 13.48C118.526 14.3867 118.999 15.6267 118.999 17.2C118.999 18.7733 118.526 20.02 117.579 20.94C116.633 21.8467 115.293 22.3 113.559 22.3ZM113.559 20.42C114.506 20.42 115.226 20.1467 115.719 19.6C116.213 19.0533 116.459 18.2533 116.459 17.2C116.459 16.16 116.213 15.3733 115.719 14.84C115.226 14.2933 114.506 14.02 113.559 14.02C112.626 14.02 111.906 14.2933 111.399 14.84C110.906 15.3733 110.659 16.16 110.659 17.2C110.659 18.24 110.906 19.04 111.399 19.6C111.906 20.1467 112.626 20.42 113.559 20.42ZM121.701 22C121.435 22 121.241 21.94 121.121 21.82C121.015 21.7 120.961 21.52 120.961 21.28V9.14C120.961 8.88667 121.015 8.7 121.121 8.58C121.241 8.46 121.435 8.4 121.701 8.4H122.761C123.028 8.4 123.221 8.46 123.341 8.58C123.461 8.7 123.521 8.88667 123.521 9.14V21.28C123.521 21.52 123.461 21.7 123.341 21.82C123.235 21.94 123.041 22 122.761 22H121.701ZM128.181 22C128.035 22 127.928 21.9867 127.861 21.96C127.795 21.9333 127.721 21.8733 127.641 21.78L124.121 17.8C124.001 17.6667 123.915 17.5467 123.861 17.44C123.808 17.32 123.781 17.1733 123.781 17C123.781 16.8267 123.808 16.6867 123.861 16.58C123.915 16.46 124.001 16.3333 124.121 16.2L127.521 12.64C127.601 12.5467 127.675 12.4867 127.741 12.46C127.821 12.42 127.948 12.4 128.121 12.4H129.981C130.075 12.4 130.141 12.4267 130.181 12.48C130.235 12.5333 130.261 12.6 130.261 12.68C130.261 12.7867 130.221 12.88 130.141 12.96L126.161 17L130.281 21.44C130.361 21.52 130.401 21.6067 130.401 21.7C130.401 21.78 130.375 21.8533 130.321 21.92C130.268 21.9733 130.195 22 130.101 22H128.181Z" fill="black"/>
</svg>
