<svg width="136" height="30" viewBox="0 0 136 30" fill="none" xmlns="http://www.w3.org/2000/svg">
<path fill-rule="evenodd" clip-rule="evenodd" d="M12 5.16302C15.204 5.16302 15.584 5.17502 16.85 5.23302C18.018 5.28702 18.654 5.48102 19.078 5.64702C19.598 5.83902 20.072 6.14502 20.458 6.54302C20.858 6.93102 21.164 7.40302 21.358 7.92502C21.522 8.34902 21.718 8.98502 21.77 10.153C21.828 11.419 21.84 11.799 21.84 15.003C21.84 18.207 21.828 18.587 21.77 19.853C21.716 21.023 21.522 21.657 21.356 22.081C21.156 22.598 20.8503 23.0674 20.4583 23.4594C20.0664 23.8513 19.5969 24.157 19.08 24.357C18.656 24.521 18.02 24.717 16.852 24.771C15.586 24.829 15.206 24.841 12.002 24.841C8.798 24.841 8.418 24.829 7.152 24.771C5.982 24.717 5.348 24.523 4.924 24.357C4.40264 24.1646 3.93107 23.8578 3.544 23.459C3.144 23.073 2.838 22.599 2.644 22.079C2.48 21.655 2.284 21.019 2.232 19.851C2.174 18.585 2.162 18.205 2.162 15.001C2.162 11.797 2.174 11.417 2.232 10.151C2.286 8.98102 2.48 8.34702 2.646 7.92302C2.838 7.40302 3.146 6.92902 3.544 6.54302C3.93 6.14302 4.404 5.83702 4.924 5.64302C5.348 5.47902 5.984 5.28302 7.152 5.23102C8.418 5.17302 8.798 5.16102 12.002 5.16102L12 5.16302ZM12 2.99902C8.742 2.99902 8.334 3.01302 7.054 3.07102C5.774 3.13102 4.902 3.33502 4.14 3.63102C3.34 3.93102 2.614 4.40502 2.014 5.01502C1.404 5.61502 0.932 6.34102 0.63 7.14102C0.334 7.90302 0.13 8.77702 0.072 10.055C0.014 11.331 0 11.741 0 15.001C0 18.261 0.014 18.669 0.072 19.949C0.132 21.229 0.332 22.099 0.63 22.861C0.93 23.661 1.404 24.387 2.014 24.987C2.614 25.597 3.34 26.069 4.14 26.371C4.902 26.667 5.776 26.871 7.054 26.929C8.33 26.987 8.742 27.001 12 27.001C15.26 27.001 15.668 26.987 16.948 26.929C18.228 26.869 19.098 26.669 19.86 26.369C20.6571 26.0609 21.381 25.5898 21.9855 24.9857C22.5899 24.3816 23.0615 23.6579 23.37 22.861C23.666 22.099 23.87 21.225 23.928 19.947C23.986 18.671 24 18.261 24 15.001C24 11.741 23.986 11.335 23.928 10.055C23.868 8.77502 23.668 7.90502 23.368 7.14302C23.068 6.34302 22.596 5.61702 21.986 5.01702C21.3862 4.40679 20.6608 3.93452 19.86 3.63302C19.098 3.33702 18.224 3.13302 16.946 3.07502C15.67 3.01502 15.26 3.00102 12 3.00102V2.99902ZM12 8.83902C11.1908 8.83902 10.3895 8.99841 9.6419 9.30808C8.8943 9.61775 8.215 10.0716 7.64281 10.6438C7.07061 11.216 6.61672 11.8953 6.30705 12.6429C5.99739 13.3905 5.838 14.1918 5.838 15.001C5.838 15.8102 5.99739 16.6115 6.30705 17.3591C6.61672 18.1067 7.07061 18.786 7.64281 19.3582C8.215 19.9304 8.8943 20.3843 9.6419 20.694C10.3895 21.0036 11.1908 21.163 12 21.163C13.6148 21.1339 15.1536 20.472 16.2853 19.3198C17.4169 18.1675 18.051 16.6171 18.051 15.002C18.051 13.387 17.4169 11.8365 16.2853 10.6843C15.1536 9.53201 13.6148 8.87012 12 8.84102V8.83902ZM12 19.003C10.9389 19.003 9.9212 18.5815 9.17087 17.8312C8.42053 17.0808 7.999 16.0632 7.999 15.002C7.999 13.9409 8.42053 12.9232 9.17087 12.1729C9.9212 11.4226 10.9389 11.001 12 11.001C13.0609 11.001 14.0783 11.4225 14.8284 12.1726C15.5786 12.9227 16 13.9402 16 15.001C16 16.0619 15.5786 17.0793 14.8284 17.8294C14.0783 18.5796 13.0609 19.001 12 19.001V19.003ZM19.846 8.59502C19.846 8.78413 19.8088 8.97138 19.7364 9.14609C19.664 9.3208 19.558 9.47954 19.4242 9.61326C19.2905 9.74697 19.1318 9.85304 18.9571 9.92541C18.7824 9.99778 18.5951 10.035 18.406 10.035C18.2169 10.035 18.0296 9.99778 17.8549 9.92541C17.6802 9.85304 17.5215 9.74697 17.3878 9.61326C17.254 9.47954 17.148 9.3208 17.0756 9.14609C17.0032 8.97138 16.966 8.78413 16.966 8.59502C16.966 8.21311 17.1177 7.84684 17.3878 7.57679C17.6578 7.30674 18.0241 7.15502 18.406 7.15502C18.7879 7.15502 19.1542 7.30674 19.4242 7.57679C19.6943 7.84684 19.846 8.21311 19.846 8.59502Z" fill="black"/>
<path d="M40.92 22C40.6533 22 40.46 21.94 40.34 21.82C40.2333 21.7 40.18 21.52 40.18 21.28V9.14C40.18 8.88667 40.2333 8.7 40.34 8.58C40.46 8.46 40.6533 8.4 40.92 8.4H41.98C42.2467 8.4 42.44 8.46 42.56 8.58C42.68 8.7 42.74 8.88667 42.74 9.14V21.28C42.74 21.52 42.68 21.7 42.56 21.82C42.4533 21.94 42.26 22 41.98 22H40.92ZM45.8619 22C45.5952 22 45.4019 21.94 45.2819 21.82C45.1619 21.7 45.1019 21.52 45.1019 21.28V12.94C45.1019 12.74 45.1352 12.6 45.2019 12.52C45.2685 12.44 45.4085 12.4 45.6219 12.4H46.7619C47.0552 12.4 47.2085 12.5333 47.2219 12.8L47.2619 13.6C48.1685 12.6 49.4685 12.1 51.1619 12.1C52.2419 12.1 53.1085 12.3933 53.7619 12.98C54.4285 13.5533 54.7619 14.42 54.7619 15.58V21.28C54.7619 21.52 54.7019 21.7 54.5819 21.82C54.4752 21.94 54.2885 22 54.0219 22H52.9619C52.6952 22 52.5019 21.94 52.3819 21.82C52.2619 21.7 52.2019 21.52 52.2019 21.28V15.74C52.2019 15.0867 52.0485 14.6267 51.7419 14.36C51.4485 14.08 50.9685 13.94 50.3019 13.94C49.5952 13.94 48.9752 14.1333 48.4419 14.52C47.9219 14.8933 47.6619 15.38 47.6619 15.98V21.28C47.6619 21.52 47.6019 21.7 47.4819 21.82C47.3752 21.94 47.1819 22 46.9019 22H45.8619ZM61.1759 22.3C60.3759 22.3 59.5959 22.2133 58.8359 22.04C58.0759 21.88 57.4226 21.6333 56.8759 21.3C56.7026 21.2067 56.6159 21.1067 56.6159 21C56.6159 20.92 56.6426 20.8467 56.6959 20.78L57.2559 19.8C57.3226 19.68 57.3893 19.62 57.4559 19.62C57.5226 19.62 57.6093 19.6533 57.7159 19.72C58.1159 19.96 58.6093 20.16 59.1959 20.32C59.7826 20.48 60.3226 20.56 60.8159 20.56C61.5759 20.56 62.1159 20.4867 62.4359 20.34C62.7693 20.18 62.9359 19.9 62.9359 19.5C62.9359 19.2733 62.8693 19.0933 62.7359 18.96C62.6159 18.8133 62.4293 18.6867 62.1759 18.58C61.9226 18.4733 61.5026 18.3267 60.9159 18.14C60.9159 18.14 60.6959 18.0667 60.2559 17.92C59.4959 17.6667 58.8893 17.42 58.4359 17.18C57.9826 16.94 57.6293 16.64 57.3759 16.28C57.1359 15.9067 57.0159 15.44 57.0159 14.88C57.0159 13.9733 57.3959 13.2867 58.1559 12.82C58.9293 12.34 59.9293 12.1 61.1559 12.1C62.6493 12.1 63.9359 12.42 65.0159 13.06C65.1893 13.1533 65.2759 13.2533 65.2759 13.36C65.2759 13.4267 65.2426 13.5133 65.1759 13.62L64.6359 14.48C64.5559 14.6 64.4893 14.66 64.4359 14.66C64.3826 14.66 64.3026 14.6267 64.1959 14.56C63.8493 14.3467 63.4293 14.18 62.9359 14.06C62.4559 13.9267 61.9693 13.86 61.4759 13.86C60.8093 13.86 60.3159 13.9333 59.9959 14.08C59.6893 14.2133 59.5359 14.48 59.5359 14.88C59.5359 15.2267 59.7159 15.5 60.0759 15.7C60.4493 15.9 61.0893 16.14 61.9959 16.42L62.6559 16.62C63.6959 16.9533 64.4226 17.3467 64.8359 17.8C65.2626 18.2533 65.4759 18.82 65.4759 19.5C65.4759 20.3267 65.1093 21 64.3759 21.52C63.6559 22.04 62.5893 22.3 61.1759 22.3ZM71.5727 22.3C70.4393 22.3 69.586 21.9867 69.0127 21.36C68.4393 20.7333 68.1527 19.8667 68.1527 18.76V14.28H67.0127C66.746 14.28 66.566 14.2333 66.4727 14.14C66.3927 14.0467 66.3527 13.8733 66.3527 13.62V13.08C66.3527 12.8267 66.3927 12.6533 66.4727 12.56C66.566 12.4533 66.746 12.4 67.0127 12.4H68.1527V11.3C68.1527 11.02 68.1993 10.76 68.2927 10.52C68.3993 10.2667 68.5593 9.95333 68.7727 9.58C68.8527 9.42 68.926 9.32 68.9927 9.28C69.0727 9.22667 69.206 9.2 69.3927 9.2H70.0527C70.2927 9.2 70.4593 9.26 70.5527 9.38C70.6593 9.48667 70.7127 9.65333 70.7127 9.88V12.4H73.0727C73.3393 12.4 73.5127 12.4533 73.5927 12.56C73.686 12.6533 73.7327 12.8267 73.7327 13.08V13.62C73.7327 13.8733 73.686 14.0467 73.5927 14.14C73.5127 14.2333 73.3393 14.28 73.0727 14.28H70.7127V18.68C70.7127 19.2933 70.8193 19.74 71.0327 20.02C71.246 20.2867 71.6127 20.42 72.1327 20.42C72.4393 20.42 72.6993 20.3867 72.9127 20.32C73.126 20.24 73.3593 20.1133 73.6127 19.94C73.6793 19.8867 73.7527 19.86 73.8327 19.86C73.9127 19.86 73.9927 19.92 74.0727 20.04L74.6527 21C74.706 21.0667 74.7327 21.14 74.7327 21.22C74.7327 21.3133 74.666 21.4067 74.5327 21.5C73.706 22.0333 72.7193 22.3 71.5727 22.3ZM79.4702 22.3C78.1635 22.3 77.1235 21.9067 76.3502 21.12C75.5768 20.32 75.1902 19.2 75.1902 17.76C75.1902 16.64 75.4368 15.6533 75.9302 14.8C76.4235 13.9333 77.1235 13.2667 78.0302 12.8C78.9502 12.3333 80.0168 12.1 81.2302 12.1C82.9235 12.1 84.3568 12.5 85.5302 13.3V21.46C85.5302 21.66 85.4835 21.8 85.3902 21.88C85.3102 21.96 85.1635 22 84.9502 22H83.8502C83.7035 22 83.5902 21.9733 83.5102 21.92C83.4435 21.8533 83.3968 21.7533 83.3702 21.62L83.2102 20.84C82.7968 21.3467 82.2835 21.72 81.6702 21.96C81.0702 22.1867 80.3368 22.3 79.4702 22.3ZM80.4302 20.48C81.1368 20.48 81.7568 20.2733 82.2902 19.86C82.8368 19.4467 83.1102 18.9 83.1102 18.22V14.32C82.8302 14.1733 82.5435 14.0733 82.2502 14.02C81.9702 13.9533 81.6235 13.92 81.2102 13.92C80.1568 13.92 79.3102 14.2533 78.6702 14.92C78.0302 15.5867 77.7102 16.5067 77.7102 17.68C77.7102 18.64 77.9302 19.3467 78.3702 19.8C78.8235 20.2533 79.5102 20.48 80.4302 20.48ZM92.9948 25.4C92.2215 25.4 91.4682 25.3267 90.7348 25.18C90.0015 25.0333 89.4415 24.84 89.0548 24.6C88.8415 24.48 88.7882 24.3333 88.8948 24.16L89.4748 23.18C89.5548 23.0467 89.6348 22.98 89.7148 22.98C89.7682 22.98 89.8348 23 89.9148 23.04C90.6482 23.4133 91.6015 23.6 92.7748 23.6C93.6682 23.6 94.3215 23.3867 94.7348 22.96C95.1482 22.5333 95.3548 21.8133 95.3548 20.8C94.9815 21.2 94.5415 21.5 94.0348 21.7C93.5415 21.8867 92.9415 21.98 92.2348 21.98C90.7415 21.98 89.5748 21.5733 88.7348 20.76C87.9082 19.9467 87.4948 18.8 87.4948 17.32C87.4948 15.64 87.9882 14.3533 88.9748 13.46C89.9748 12.5533 91.4148 12.1 93.2948 12.1C94.1615 12.1 95.0082 12.22 95.8348 12.46C96.6748 12.7 97.3548 13 97.8748 13.36V20.22C97.8748 21.8333 97.4815 23.1 96.6948 24.02C95.9082 24.94 94.6748 25.4 92.9948 25.4ZM92.8348 20.1C93.5815 20.1 94.1882 19.9067 94.6548 19.52C95.1215 19.12 95.3548 18.5733 95.3548 17.88V14.32C95.1015 14.2 94.7815 14.1067 94.3948 14.04C94.0082 13.9733 93.6015 13.94 93.1748 13.94C91.0682 13.94 90.0148 15.0133 90.0148 17.16C90.0148 18.1467 90.2482 18.8867 90.7148 19.38C91.1815 19.86 91.8882 20.1 92.8348 20.1ZM100.999 22C100.732 22 100.539 21.94 100.419 21.82C100.299 21.7 100.239 21.52 100.239 21.28V12.94C100.239 12.74 100.272 12.6 100.339 12.52C100.405 12.44 100.545 12.4 100.759 12.4H101.899C102.045 12.4 102.152 12.4333 102.219 12.5C102.285 12.5533 102.325 12.6533 102.339 12.8L102.399 13.52C103.185 12.5733 104.219 12.1 105.499 12.1C106.085 12.1 106.532 12.2 106.839 12.4C106.919 12.4533 106.965 12.5133 106.979 12.58C107.005 12.6333 107.005 12.7 106.979 12.78L106.619 13.98C106.579 14.1133 106.505 14.18 106.399 14.18L106.239 14.14C105.919 13.9933 105.552 13.92 105.139 13.92C104.459 13.92 103.899 14.1133 103.459 14.5C103.019 14.8733 102.799 15.3867 102.799 16.04V21.28C102.799 21.52 102.739 21.7 102.619 21.82C102.512 21.94 102.319 22 102.039 22H100.999ZM112.439 22.3C111.132 22.3 110.092 21.9067 109.319 21.12C108.546 20.32 108.159 19.2 108.159 17.76C108.159 16.64 108.406 15.6533 108.899 14.8C109.392 13.9333 110.092 13.2667 110.999 12.8C111.919 12.3333 112.986 12.1 114.199 12.1C115.892 12.1 117.326 12.5 118.499 13.3V21.46C118.499 21.66 118.452 21.8 118.359 21.88C118.279 21.96 118.132 22 117.919 22H116.819C116.672 22 116.559 21.9733 116.479 21.92C116.412 21.8533 116.366 21.7533 116.339 21.62L116.179 20.84C115.766 21.3467 115.252 21.72 114.639 21.96C114.039 22.1867 113.306 22.3 112.439 22.3ZM113.399 20.48C114.106 20.48 114.726 20.2733 115.259 19.86C115.806 19.4467 116.079 18.9 116.079 18.22V14.32C115.799 14.1733 115.512 14.0733 115.219 14.02C114.939 13.9533 114.592 13.92 114.179 13.92C113.126 13.92 112.279 14.2533 111.639 14.92C110.999 15.5867 110.679 16.5067 110.679 17.68C110.679 18.64 110.899 19.3467 111.339 19.8C111.792 20.2533 112.479 20.48 113.399 20.48ZM121.624 22C121.357 22 121.164 21.94 121.044 21.82C120.924 21.7 120.864 21.52 120.864 21.28V12.94C120.864 12.74 120.897 12.6 120.964 12.52C121.03 12.44 121.17 12.4 121.384 12.4H122.444C122.59 12.4 122.697 12.4333 122.764 12.5C122.83 12.5533 122.87 12.6533 122.884 12.8L122.944 13.64C123.33 13.1467 123.77 12.7667 124.264 12.5C124.77 12.2333 125.37 12.1 126.064 12.1C126.65 12.1 127.157 12.2333 127.584 12.5C128.024 12.7533 128.344 13.1333 128.544 13.64C129.277 12.6133 130.337 12.1 131.724 12.1C132.67 12.1 133.417 12.3867 133.964 12.96C134.524 13.5333 134.804 14.3867 134.804 15.52V21.28C134.804 21.52 134.744 21.7 134.624 21.82C134.517 21.94 134.324 22 134.044 22H133.164C132.897 22 132.704 21.94 132.584 21.82C132.464 21.7 132.404 21.52 132.404 21.28V15.66C132.404 15.0467 132.27 14.6067 132.004 14.34C131.75 14.0733 131.364 13.94 130.844 13.94C130.297 13.94 129.85 14.12 129.504 14.48C129.17 14.84 129.004 15.3267 129.004 15.94V21.28C129.004 21.52 128.944 21.7 128.824 21.82C128.704 21.94 128.51 22 128.244 22H127.424C127.157 22 126.964 21.94 126.844 21.82C126.724 21.7 126.664 21.52 126.664 21.28V15.56C126.664 15 126.544 14.5933 126.304 14.34C126.077 14.0733 125.71 13.94 125.204 13.94C124.63 13.94 124.164 14.1333 123.804 14.52C123.444 14.8933 123.264 15.3867 123.264 16V21.28C123.264 21.52 123.204 21.7 123.084 21.82C122.977 21.94 122.784 22 122.504 22H121.624Z" fill="black"/>
</svg>
