<svg width="130" height="30" viewBox="0 0 130 30" fill="none" xmlns="http://www.w3.org/2000/svg">
<path fill-rule="evenodd" clip-rule="evenodd" d="M20.451 23.5438C18.2055 25.7687 15.171 27.015 12.01 27.0107C10.7689 27.0107 9.57194 26.8226 8.44701 26.4723C8.93942 25.6716 9.66002 24.3805 9.92424 23.3437L10.6749 20.4873C11.0612 21.2379 12.2081 21.8705 13.4231 21.8705C17.0421 21.8705 19.6503 18.5397 19.6503 14.3982C19.6503 10.425 16.4076 7.45849 12.2482 7.45849C7.05786 7.45849 4.30958 10.9374 4.30958 14.7245C4.30958 16.494 5.25036 18.6778 6.7516 19.3804C6.97779 19.4885 7.1079 19.4404 7.15594 19.2203L7.27203 18.7539L7.49222 17.8571C7.51015 17.7974 7.51219 17.7341 7.49815 17.6733C7.48411 17.6126 7.45447 17.5566 7.41215 17.5108C6.91974 16.9103 6.52341 15.8014 6.52341 14.7726C6.52341 12.1244 8.53108 9.56424 11.9499 9.56424C14.9064 9.56424 16.9721 11.5699 16.9721 14.4483C16.9721 17.691 15.3307 19.9429 13.197 19.9429C12.02 19.9429 11.1292 18.964 11.4155 17.769C11.5396 17.2586 11.7017 16.7342 11.8598 16.2238C12.1441 15.303 12.4143 14.4263 12.4143 13.7657C12.4143 12.845 11.9219 12.0743 10.893 12.0743C9.68804 12.0743 8.71924 13.3194 8.71924 14.9907C8.71924 16.0476 9.07353 16.7702 9.07353 16.7702C9.07353 16.7702 7.88855 21.8024 7.67237 22.7412C7.43217 23.778 7.52224 25.2372 7.63233 26.188C5.38296 25.3067 3.45148 23.7677 2.08996 21.7721C0.728444 19.7764 0.000107645 17.4166 6.83182e-08 15.0008C-0.00017992 13.3132 0.355284 11.6445 1.04322 10.1036C1.73115 8.56261 2.73612 7.18392 3.99259 6.05738C5.24907 4.93083 6.72886 4.08173 8.33549 3.56542C9.94212 3.04911 11.6395 2.87718 13.3171 3.06084C16.2605 3.38274 18.9807 4.78277 20.9532 6.99111C22.9257 9.19945 24.011 12.0598 23.9999 15.0208C24.002 16.6056 23.6893 18.1751 23.0801 19.6382C22.4709 21.1012 21.5772 22.4288 20.451 23.5438Z" fill="black"/>
<path d="M40.92 22C40.6533 22 40.46 21.94 40.34 21.82C40.2333 21.7 40.18 21.52 40.18 21.28V9.14C40.18 8.88667 40.2333 8.7 40.34 8.58C40.46 8.46 40.6533 8.4 40.92 8.4H46.04C47.68 8.4 48.8933 8.79333 49.68 9.58C50.48 10.3533 50.88 11.4667 50.88 12.92C50.88 14.36 50.48 15.4667 49.68 16.24C48.8933 17.0133 47.68 17.4 46.04 17.4H42.74V21.28C42.74 21.52 42.68 21.7 42.56 21.82C42.4533 21.94 42.26 22 41.98 22H40.92ZM45.92 15.46C46.7333 15.46 47.34 15.2533 47.74 14.84C48.14 14.4133 48.34 13.7733 48.34 12.92C48.34 12.0533 48.14 11.4133 47.74 11C47.34 10.5733 46.7333 10.36 45.92 10.36H42.74V15.46H45.92ZM53.4456 10.74C53.1256 10.74 52.879 10.6467 52.7056 10.46C52.5323 10.2733 52.4456 10.0467 52.4456 9.78V9.36C52.4456 9.09333 52.5323 8.86667 52.7056 8.68C52.879 8.49333 53.1256 8.4 53.4456 8.4H54.3056C54.6256 8.4 54.8723 8.49333 55.0456 8.68C55.2323 8.86667 55.3256 9.09333 55.3256 9.36V9.78C55.3256 10.0467 55.2323 10.2733 55.0456 10.46C54.8723 10.6467 54.6256 10.74 54.3056 10.74H53.4456ZM53.3656 22C53.099 22 52.9056 21.94 52.7856 21.82C52.6656 21.7 52.6056 21.52 52.6056 21.28V13.14C52.6056 12.8867 52.6656 12.7 52.7856 12.58C52.9056 12.46 53.099 12.4 53.3656 12.4H54.4056C54.6723 12.4 54.8656 12.46 54.9856 12.58C55.1056 12.7 55.1656 12.8867 55.1656 13.14V21.28C55.1656 21.52 55.1056 21.7 54.9856 21.82C54.879 21.94 54.6856 22 54.4056 22H53.3656ZM58.44 22C58.1733 22 57.98 21.94 57.86 21.82C57.74 21.7 57.68 21.52 57.68 21.28V12.94C57.68 12.74 57.7133 12.6 57.78 12.52C57.8467 12.44 57.9867 12.4 58.2 12.4H59.34C59.6333 12.4 59.7867 12.5333 59.8 12.8L59.84 13.6C60.7467 12.6 62.0467 12.1 63.74 12.1C64.82 12.1 65.6867 12.3933 66.34 12.98C67.0067 13.5533 67.34 14.42 67.34 15.58V21.28C67.34 21.52 67.28 21.7 67.16 21.82C67.0533 21.94 66.8667 22 66.6 22H65.54C65.2733 22 65.08 21.94 64.96 21.82C64.84 21.7 64.78 21.52 64.78 21.28V15.74C64.78 15.0867 64.6267 14.6267 64.32 14.36C64.0267 14.08 63.5467 13.94 62.88 13.94C62.1733 13.94 61.5533 14.1333 61.02 14.52C60.5 14.8933 60.24 15.38 60.24 15.98V21.28C60.24 21.52 60.18 21.7 60.06 21.82C59.9533 21.94 59.76 22 59.48 22H58.44ZM74.0141 22.3C72.8807 22.3 72.0274 21.9867 71.4541 21.36C70.8807 20.7333 70.5941 19.8667 70.5941 18.76V14.28H69.4541C69.1874 14.28 69.0074 14.2333 68.9141 14.14C68.8341 14.0467 68.7941 13.8733 68.7941 13.62V13.08C68.7941 12.8267 68.8341 12.6533 68.9141 12.56C69.0074 12.4533 69.1874 12.4 69.4541 12.4H70.5941V11.3C70.5941 11.02 70.6407 10.76 70.7341 10.52C70.8407 10.2667 71.0007 9.95333 71.2141 9.58C71.2941 9.42 71.3674 9.32 71.4341 9.28C71.5141 9.22667 71.6474 9.2 71.8341 9.2H72.4941C72.7341 9.2 72.9007 9.26 72.9941 9.38C73.1007 9.48667 73.1541 9.65333 73.1541 9.88V12.4H75.5141C75.7807 12.4 75.9541 12.4533 76.0341 12.56C76.1274 12.6533 76.1741 12.8267 76.1741 13.08V13.62C76.1741 13.8733 76.1274 14.0467 76.0341 14.14C75.9541 14.2333 75.7807 14.28 75.5141 14.28H73.1541V18.68C73.1541 19.2933 73.2607 19.74 73.4741 20.02C73.6874 20.2867 74.0541 20.42 74.5741 20.42C74.8807 20.42 75.1407 20.3867 75.3541 20.32C75.5674 20.24 75.8007 20.1133 76.0541 19.94C76.1207 19.8867 76.1941 19.86 76.2741 19.86C76.3541 19.86 76.4341 19.92 76.5141 20.04L77.0941 21C77.1474 21.0667 77.1741 21.14 77.1741 21.22C77.1741 21.3133 77.1074 21.4067 76.9741 21.5C76.1474 22.0333 75.1607 22.3 74.0141 22.3ZM83.9147 22.3C82.8747 22.3 81.9347 22.1267 81.0947 21.78C80.2547 21.42 79.5814 20.8733 79.0747 20.14C78.5814 19.3933 78.3347 18.4667 78.3347 17.36C78.3347 15.64 78.7947 14.3333 79.7147 13.44C80.6347 12.5467 81.9414 12.1 83.6347 12.1C85.3147 12.1 86.5814 12.5333 87.4347 13.4C88.3014 14.2667 88.7347 15.52 88.7347 17.16C88.7347 17.6267 88.5214 17.86 88.0947 17.86H80.7547C80.7547 18.74 81.0614 19.42 81.6747 19.9C82.288 20.3667 83.1414 20.6 84.2347 20.6C85.288 20.6 86.2347 20.36 87.0747 19.88C87.168 19.8267 87.2414 19.8 87.2947 19.8C87.388 19.8 87.4614 19.86 87.5147 19.98L87.9947 20.84C88.0347 20.92 88.0547 20.9933 88.0547 21.06C88.0547 21.1533 87.9947 21.24 87.8747 21.32C87.328 21.6533 86.7347 21.9 86.0947 22.06C85.468 22.22 84.7414 22.3 83.9147 22.3ZM86.4147 16.38C86.4147 15.5533 86.1814 14.9067 85.7147 14.44C85.2614 13.9733 84.5747 13.74 83.6547 13.74C82.7214 13.74 82.0014 13.98 81.4947 14.46C81.0014 14.94 80.7547 15.58 80.7547 16.38H86.4147ZM91.4478 22C91.1811 22 90.9878 21.94 90.8678 21.82C90.7478 21.7 90.6878 21.52 90.6878 21.28V12.94C90.6878 12.74 90.7211 12.6 90.7878 12.52C90.8545 12.44 90.9945 12.4 91.2078 12.4H92.3478C92.4945 12.4 92.6011 12.4333 92.6678 12.5C92.7345 12.5533 92.7745 12.6533 92.7878 12.8L92.8478 13.52C93.6345 12.5733 94.6678 12.1 95.9478 12.1C96.5345 12.1 96.9811 12.2 97.2878 12.4C97.3678 12.4533 97.4145 12.5133 97.4278 12.58C97.4545 12.6333 97.4545 12.7 97.4278 12.78L97.0678 13.98C97.0278 14.1133 96.9545 14.18 96.8478 14.18L96.6878 14.14C96.3678 13.9933 96.0011 13.92 95.5878 13.92C94.9078 13.92 94.3478 14.1133 93.9078 14.5C93.4678 14.8733 93.2478 15.3867 93.2478 16.04V21.28C93.2478 21.52 93.1878 21.7 93.0678 21.82C92.9611 21.94 92.7678 22 92.4878 22H91.4478ZM104.188 22.3C103.148 22.3 102.208 22.1267 101.368 21.78C100.528 21.42 99.8548 20.8733 99.3481 20.14C98.8548 19.3933 98.6081 18.4667 98.6081 17.36C98.6081 15.64 99.0681 14.3333 99.9881 13.44C100.908 12.5467 102.215 12.1 103.908 12.1C105.588 12.1 106.855 12.5333 107.708 13.4C108.575 14.2667 109.008 15.52 109.008 17.16C109.008 17.6267 108.795 17.86 108.368 17.86H101.028C101.028 18.74 101.335 19.42 101.948 19.9C102.561 20.3667 103.415 20.6 104.508 20.6C105.561 20.6 106.508 20.36 107.348 19.88C107.441 19.8267 107.515 19.8 107.568 19.8C107.661 19.8 107.735 19.86 107.788 19.98L108.268 20.84C108.308 20.92 108.328 20.9933 108.328 21.06C108.328 21.1533 108.268 21.24 108.148 21.32C107.601 21.6533 107.008 21.9 106.368 22.06C105.741 22.22 105.015 22.3 104.188 22.3ZM106.688 16.38C106.688 15.5533 106.455 14.9067 105.988 14.44C105.535 13.9733 104.848 13.74 103.928 13.74C102.995 13.74 102.275 13.98 101.768 14.46C101.275 14.94 101.028 15.58 101.028 16.38H106.688ZM115.121 22.3C114.321 22.3 113.541 22.2133 112.781 22.04C112.021 21.88 111.368 21.6333 110.821 21.3C110.648 21.2067 110.561 21.1067 110.561 21C110.561 20.92 110.588 20.8467 110.641 20.78L111.201 19.8C111.268 19.68 111.335 19.62 111.401 19.62C111.468 19.62 111.555 19.6533 111.661 19.72C112.061 19.96 112.555 20.16 113.141 20.32C113.728 20.48 114.268 20.56 114.761 20.56C115.521 20.56 116.061 20.4867 116.381 20.34C116.715 20.18 116.881 19.9 116.881 19.5C116.881 19.2733 116.815 19.0933 116.681 18.96C116.561 18.8133 116.375 18.6867 116.121 18.58C115.868 18.4733 115.448 18.3267 114.861 18.14C114.861 18.14 114.641 18.0667 114.201 17.92C113.441 17.6667 112.835 17.42 112.381 17.18C111.928 16.94 111.575 16.64 111.321 16.28C111.081 15.9067 110.961 15.44 110.961 14.88C110.961 13.9733 111.341 13.2867 112.101 12.82C112.875 12.34 113.875 12.1 115.101 12.1C116.595 12.1 117.881 12.42 118.961 13.06C119.135 13.1533 119.221 13.2533 119.221 13.36C119.221 13.4267 119.188 13.5133 119.121 13.62L118.581 14.48C118.501 14.6 118.435 14.66 118.381 14.66C118.328 14.66 118.248 14.6267 118.141 14.56C117.795 14.3467 117.375 14.18 116.881 14.06C116.401 13.9267 115.915 13.86 115.421 13.86C114.755 13.86 114.261 13.9333 113.941 14.08C113.635 14.2133 113.481 14.48 113.481 14.88C113.481 15.2267 113.661 15.5 114.021 15.7C114.395 15.9 115.035 16.14 115.941 16.42L116.601 16.62C117.641 16.9533 118.368 17.3467 118.781 17.8C119.208 18.2533 119.421 18.82 119.421 19.5C119.421 20.3267 119.055 21 118.321 21.52C117.601 22.04 116.535 22.3 115.121 22.3ZM125.518 22.3C124.385 22.3 123.531 21.9867 122.958 21.36C122.385 20.7333 122.098 19.8667 122.098 18.76V14.28H120.958C120.691 14.28 120.511 14.2333 120.418 14.14C120.338 14.0467 120.298 13.8733 120.298 13.62V13.08C120.298 12.8267 120.338 12.6533 120.418 12.56C120.511 12.4533 120.691 12.4 120.958 12.4H122.098V11.3C122.098 11.02 122.145 10.76 122.238 10.52C122.345 10.2667 122.505 9.95333 122.718 9.58C122.798 9.42 122.871 9.32 122.938 9.28C123.018 9.22667 123.151 9.2 123.338 9.2H123.998C124.238 9.2 124.405 9.26 124.498 9.38C124.605 9.48667 124.658 9.65333 124.658 9.88V12.4H127.018C127.285 12.4 127.458 12.4533 127.538 12.56C127.631 12.6533 127.678 12.8267 127.678 13.08V13.62C127.678 13.8733 127.631 14.0467 127.538 14.14C127.458 14.2333 127.285 14.28 127.018 14.28H124.658V18.68C124.658 19.2933 124.765 19.74 124.978 20.02C125.191 20.2867 125.558 20.42 126.078 20.42C126.385 20.42 126.645 20.3867 126.858 20.32C127.071 20.24 127.305 20.1133 127.558 19.94C127.625 19.8867 127.698 19.86 127.778 19.86C127.858 19.86 127.938 19.92 128.018 20.04L128.598 21C128.651 21.0667 128.678 21.14 128.678 21.22C128.678 21.3133 128.611 21.4067 128.478 21.5C127.651 22.0333 126.665 22.3 125.518 22.3Z" fill="black"/>
</svg>
