<svg width="107" height="30" viewBox="0 0 107 30" fill="none" xmlns="http://www.w3.org/2000/svg">
<path d="M7.548 25.7893C16.604 25.7893 21.558 17.4853 21.558 10.2853C21.558 10.0493 21.558 9.8153 21.544 9.5813C22.5222 8.79311 23.3536 7.83847 24 6.7613C23.1103 7.19878 22.155 7.48793 21.172 7.6173C22.2 6.9373 22.97 5.8653 23.336 4.6033C22.3839 5.2324 21.3243 5.68119 20.21 5.9273C19.4977 5.07125 18.51 4.48938 17.416 4.2813C16.3402 4.0889 15.231 4.29281 14.294 4.8553C13.3144 5.44893 12.5547 6.34548 12.13 7.4093C11.6817 8.51372 11.573 9.72679 11.818 10.8933C9.84302 10.7795 7.92043 10.2143 6.198 9.24129C4.41793 8.23281 2.87408 6.85535 1.67 5.2013C1.03727 6.42266 0.84648 7.8253 1.13 9.1713C1.414 10.5233 2.152 11.7033 3.194 12.4753C2.40255 12.447 1.63232 12.2118 0.96 11.7933V11.8613C0.96 13.1213 1.354 14.3393 2.074 15.3113C2.794 16.2853 3.796 16.9533 4.91 17.2033C4.186 17.4213 3.424 17.4533 2.688 17.2953C3.002 18.3793 3.614 19.3253 4.44 20.0033C5.264 20.6833 6.26 21.0593 7.288 21.0793C5.544 22.5953 3.388 23.4193 1.172 23.4173C0.78 23.4173 0.39 23.3893 0 23.3373C2.19926 24.9198 4.83859 25.7744 7.548 25.7813" fill="black"/>
<path d="M44.34 22C44.0733 22 43.88 21.94 43.76 21.82C43.64 21.7 43.58 21.52 43.58 21.28V10.36H40.08C39.8133 10.36 39.6267 10.3067 39.52 10.2C39.4267 10.0933 39.38 9.91333 39.38 9.66V9.12C39.38 8.86667 39.4267 8.68667 39.52 8.58C39.6267 8.46 39.8133 8.4 40.08 8.4H49.64C49.9067 8.4 50.0933 8.46 50.2 8.58C50.3067 8.68667 50.36 8.86667 50.36 9.12V9.66C50.36 9.91333 50.3067 10.0933 50.2 10.2C50.0933 10.3067 49.9067 10.36 49.64 10.36H46.14V21.28C46.14 21.52 46.08 21.7 45.96 21.82C45.8533 21.94 45.66 22 45.38 22H44.34ZM52.5336 22C52.3736 22 52.2536 21.9733 52.1736 21.92C52.0936 21.8533 52.0269 21.74 51.9736 21.58L49.2536 12.82C49.2403 12.78 49.2336 12.7267 49.2336 12.66C49.2336 12.4867 49.3403 12.4 49.5536 12.4H51.0936C51.2536 12.4 51.3669 12.4267 51.4336 12.48C51.5003 12.5333 51.5469 12.6267 51.5736 12.76L53.3136 18.88L55.2936 13.62C55.3469 13.4867 55.4069 13.3933 55.4736 13.34C55.5403 13.2733 55.6469 13.24 55.7936 13.24H56.6536C56.8003 13.24 56.9003 13.2667 56.9536 13.32C57.0203 13.3733 57.0803 13.4733 57.1336 13.62L59.0936 18.88L60.8536 12.76C60.8936 12.6267 60.9403 12.5333 60.9936 12.48C61.0469 12.4267 61.1603 12.4 61.3336 12.4H62.8736C63.0869 12.4 63.1936 12.4867 63.1936 12.66C63.1936 12.7267 63.1869 12.78 63.1736 12.82L60.4336 21.58C60.3803 21.7533 60.3136 21.8667 60.2336 21.92C60.1669 21.9733 60.0536 22 59.8936 22H58.7336C58.5869 22 58.4803 21.9733 58.4136 21.92C58.3469 21.8533 58.2803 21.74 58.2136 21.58L56.2136 16.2L54.2136 21.58C54.1469 21.74 54.0736 21.8533 53.9936 21.92C53.9269 21.9733 53.8203 22 53.6736 22H52.5336ZM65.6722 10.74C65.3522 10.74 65.1055 10.6467 64.9322 10.46C64.7589 10.2733 64.6722 10.0467 64.6722 9.78V9.36C64.6722 9.09333 64.7589 8.86667 64.9322 8.68C65.1055 8.49333 65.3522 8.4 65.6722 8.4H66.5322C66.8522 8.4 67.0989 8.49333 67.2722 8.68C67.4589 8.86667 67.5522 9.09333 67.5522 9.36V9.78C67.5522 10.0467 67.4589 10.2733 67.2722 10.46C67.0989 10.6467 66.8522 10.74 66.5322 10.74H65.6722ZM65.5922 22C65.3255 22 65.1322 21.94 65.0122 21.82C64.8922 21.7 64.8322 21.52 64.8322 21.28V13.14C64.8322 12.8867 64.8922 12.7 65.0122 12.58C65.1322 12.46 65.3255 12.4 65.5922 12.4H66.6322C66.8989 12.4 67.0922 12.46 67.2122 12.58C67.3322 12.7 67.3922 12.8867 67.3922 13.14V21.28C67.3922 21.52 67.3322 21.7 67.2122 21.82C67.1055 21.94 66.9122 22 66.6322 22H65.5922ZM74.3266 22.3C73.1932 22.3 72.3399 21.9867 71.7666 21.36C71.1932 20.7333 70.9066 19.8667 70.9066 18.76V14.28H69.7666C69.4999 14.28 69.3199 14.2333 69.2266 14.14C69.1466 14.0467 69.1066 13.8733 69.1066 13.62V13.08C69.1066 12.8267 69.1466 12.6533 69.2266 12.56C69.3199 12.4533 69.4999 12.4 69.7666 12.4H70.9066V11.3C70.9066 11.02 70.9532 10.76 71.0466 10.52C71.1532 10.2667 71.3132 9.95333 71.5266 9.58C71.6066 9.42 71.6799 9.32 71.7466 9.28C71.8266 9.22667 71.9599 9.2 72.1466 9.2H72.8066C73.0466 9.2 73.2132 9.26 73.3066 9.38C73.4132 9.48667 73.4666 9.65333 73.4666 9.88V12.4H75.8266C76.0932 12.4 76.2666 12.4533 76.3466 12.56C76.4399 12.6533 76.4866 12.8267 76.4866 13.08V13.62C76.4866 13.8733 76.4399 14.0467 76.3466 14.14C76.2666 14.2333 76.0932 14.28 75.8266 14.28H73.4666V18.68C73.4666 19.2933 73.5732 19.74 73.7866 20.02C73.9999 20.2867 74.3666 20.42 74.8866 20.42C75.1932 20.42 75.4532 20.3867 75.6666 20.32C75.8799 20.24 76.1132 20.1133 76.3666 19.94C76.4332 19.8867 76.5066 19.86 76.5866 19.86C76.6666 19.86 76.7466 19.92 76.8266 20.04L77.4066 21C77.4599 21.0667 77.4866 21.14 77.4866 21.22C77.4866 21.3133 77.4199 21.4067 77.2866 21.5C76.4599 22.0333 75.4732 22.3 74.3266 22.3ZM82.5688 22.3C81.4354 22.3 80.5821 21.9867 80.0088 21.36C79.4354 20.7333 79.1488 19.8667 79.1488 18.76V14.28H78.0088C77.7421 14.28 77.5621 14.2333 77.4688 14.14C77.3888 14.0467 77.3488 13.8733 77.3488 13.62V13.08C77.3488 12.8267 77.3888 12.6533 77.4688 12.56C77.5621 12.4533 77.7421 12.4 78.0088 12.4H79.1488V11.3C79.1488 11.02 79.1954 10.76 79.2888 10.52C79.3954 10.2667 79.5554 9.95333 79.7688 9.58C79.8488 9.42 79.9221 9.32 79.9888 9.28C80.0688 9.22667 80.2021 9.2 80.3888 9.2H81.0488C81.2888 9.2 81.4554 9.26 81.5488 9.38C81.6554 9.48667 81.7088 9.65333 81.7088 9.88V12.4H84.0688C84.3354 12.4 84.5088 12.4533 84.5888 12.56C84.6821 12.6533 84.7288 12.8267 84.7288 13.08V13.62C84.7288 13.8733 84.6821 14.0467 84.5888 14.14C84.5088 14.2333 84.3354 14.28 84.0688 14.28H81.7088V18.68C81.7088 19.2933 81.8154 19.74 82.0288 20.02C82.2421 20.2867 82.6088 20.42 83.1288 20.42C83.4354 20.42 83.6954 20.3867 83.9088 20.32C84.1221 20.24 84.3554 20.1133 84.6088 19.94C84.6754 19.8867 84.7488 19.86 84.8288 19.86C84.9088 19.86 84.9888 19.92 85.0688 20.04L85.6488 21C85.7021 21.0667 85.7288 21.14 85.7288 21.22C85.7288 21.3133 85.6621 21.4067 85.5288 21.5C84.7021 22.0333 83.7154 22.3 82.5688 22.3ZM92.4694 22.3C91.4294 22.3 90.4894 22.1267 89.6494 21.78C88.8094 21.42 88.136 20.8733 87.6294 20.14C87.136 19.3933 86.8894 18.4667 86.8894 17.36C86.8894 15.64 87.3494 14.3333 88.2694 13.44C89.1894 12.5467 90.496 12.1 92.1894 12.1C93.8694 12.1 95.136 12.5333 95.9894 13.4C96.856 14.2667 97.2894 15.52 97.2894 17.16C97.2894 17.6267 97.076 17.86 96.6494 17.86H89.3094C89.3094 18.74 89.616 19.42 90.2294 19.9C90.8427 20.3667 91.696 20.6 92.7894 20.6C93.8427 20.6 94.7894 20.36 95.6294 19.88C95.7227 19.8267 95.796 19.8 95.8494 19.8C95.9427 19.8 96.016 19.86 96.0694 19.98L96.5494 20.84C96.5894 20.92 96.6094 20.9933 96.6094 21.06C96.6094 21.1533 96.5494 21.24 96.4294 21.32C95.8827 21.6533 95.2894 21.9 94.6494 22.06C94.0227 22.22 93.296 22.3 92.4694 22.3ZM94.9694 16.38C94.9694 15.5533 94.736 14.9067 94.2694 14.44C93.816 13.9733 93.1294 13.74 92.2094 13.74C91.276 13.74 90.556 13.98 90.0494 14.46C89.556 14.94 89.3094 15.58 89.3094 16.38H94.9694ZM100.003 22C99.7358 22 99.5425 21.94 99.4225 21.82C99.3025 21.7 99.2425 21.52 99.2425 21.28V12.94C99.2425 12.74 99.2758 12.6 99.3425 12.52C99.4092 12.44 99.5492 12.4 99.7625 12.4H100.903C101.049 12.4 101.156 12.4333 101.223 12.5C101.289 12.5533 101.329 12.6533 101.343 12.8L101.403 13.52C102.189 12.5733 103.223 12.1 104.503 12.1C105.089 12.1 105.536 12.2 105.843 12.4C105.923 12.4533 105.969 12.5133 105.983 12.58C106.009 12.6333 106.009 12.7 105.983 12.78L105.623 13.98C105.583 14.1133 105.509 14.18 105.403 14.18L105.243 14.14C104.923 13.9933 104.556 13.92 104.143 13.92C103.463 13.92 102.903 14.1133 102.463 14.5C102.023 14.8733 101.803 15.3867 101.803 16.04V21.28C101.803 21.52 101.743 21.7 101.623 21.82C101.516 21.94 101.323 22 101.043 22H100.003Z" fill="black"/>
</svg>
