<svg width="26" height="26" viewBox="0 0 26 26" fill="none" xmlns="http://www.w3.org/2000/svg">
<path d="M13 0.666626C9.64196 0.729728 6.44601 2.12207 4.11312 4.53829C1.78022 6.9545 0.500838 10.1973 0.555565 13.5555V25.5555H5.17779C5.82228 25.5698 6.44616 25.3281 6.91269 24.8832C7.37923 24.4383 7.65037 23.8266 7.66668 23.1822V17.2622C7.65037 16.6177 7.37923 16.006 6.91269 15.5612C6.44616 15.1163 5.82228 14.8745 5.17779 14.8888H2.33334V13.5555C2.27853 10.6688 3.3706 7.87809 5.37011 5.79526C7.36963 3.71243 10.1134 2.50742 13 2.4444C15.8866 2.50742 18.6304 3.71243 20.6299 5.79526C22.6294 7.87809 23.7215 10.6688 23.6667 13.5555V14.8888H20.8222C20.1777 14.8745 19.5539 15.1163 19.0873 15.5612C18.6208 16.006 18.3497 16.6177 18.3333 17.2622V23.1911C18.352 23.834 18.6241 24.4434 19.0904 24.8863C19.5567 25.3293 20.1792 25.5699 20.8222 25.5555H25.4445V13.5555C25.4992 10.1973 24.2198 6.9545 21.8869 4.53829C19.554 2.12207 16.3581 0.729728 13 0.666626ZM5.17779 16.6666C5.35044 16.6541 5.52118 16.7093 5.6539 16.8205C5.78661 16.9316 5.87088 17.09 5.8889 17.2622V23.1911C5.87088 23.3632 5.78661 23.5216 5.6539 23.6328C5.52118 23.7439 5.35044 23.7991 5.17779 23.7866H2.33334V16.6666H5.17779ZM20.1111 23.1822V17.2622C20.1291 17.09 20.2134 16.9316 20.3461 16.8205C20.4788 16.7093 20.6496 16.6541 20.8222 16.6666H23.6667V23.7777H20.8222C20.6496 23.7902 20.4788 23.7351 20.3461 23.6239C20.2134 23.5128 20.1291 23.3543 20.1111 23.1822Z" fill="white"/>
</svg>
