<svg width="32" height="27" viewBox="0 0 32 27" fill="none" xmlns="http://www.w3.org/2000/svg">
<path d="M2 4.65588C3.77 3.91588 6.308 3.11788 8.776 2.86988C11.436 2.60188 13.692 2.99588 15 4.37388V23.8659C13.13 22.8059 10.76 22.6599 8.574 22.8799C6.214 23.1199 3.834 23.8019 2 24.5019V4.65588ZM17 4.37388C18.308 2.99588 20.564 2.60188 23.224 2.86988C25.692 3.11788 28.23 3.91588 30 4.65588V24.5019C28.164 23.8019 25.786 23.1179 23.426 22.8819C21.238 22.6599 18.87 22.8039 17 23.8659V4.37388ZM16 2.56588C14.03 0.871884 11.174 0.619884 8.574 0.879884C5.546 1.18588 2.49 2.22388 0.586 3.08988C0.411298 3.16934 0.263151 3.29739 0.159242 3.45875C0.0553334 3.62011 5.31428e-05 3.80796 0 3.99988L0 25.9999C4.6324e-05 26.1672 0.0420743 26.3318 0.122234 26.4787C0.202394 26.6256 0.318123 26.75 0.458822 26.8405C0.59952 26.9311 0.760689 26.9849 0.927567 26.997C1.09444 27.0091 1.2617 26.9792 1.414 26.9099C3.178 26.1099 6.02 25.1479 8.774 24.8699C11.592 24.5859 13.954 25.0439 15.22 26.6239C15.3137 26.7407 15.4324 26.8349 15.5674 26.8997C15.7024 26.9645 15.8503 26.9981 16 26.9981C16.1497 26.9981 16.2976 26.9645 16.4326 26.8997C16.5676 26.8349 16.6863 26.7407 16.78 26.6239C18.046 25.0439 20.408 24.5859 23.224 24.8699C25.98 25.1479 28.824 26.1099 30.586 26.9099C30.7383 26.9792 30.9056 27.0091 31.0724 26.997C31.2393 26.9849 31.4005 26.9311 31.5412 26.8405C31.6819 26.75 31.7976 26.6256 31.8778 26.4787C31.9579 26.3318 32 26.1672 32 25.9999V3.99988C31.9999 3.80796 31.9447 3.62011 31.8408 3.45875C31.7368 3.29739 31.5887 3.16934 31.414 3.08988C29.51 2.22388 26.454 1.18588 23.426 0.879884C20.826 0.617884 17.97 0.871884 16 2.56588Z" fill="white"/>
</svg>
