<svg width="32" height="31" viewBox="0 0 32 31" fill="none" xmlns="http://www.w3.org/2000/svg">
<g clip-path="url(#clip0_1_281)">
<path d="M1.42306 26.3529H18.3529C19.1313 26.3529 19.7647 25.7195 19.7647 24.9412V7.05882C19.7647 7.03718 19.7553 7.01835 19.7525 6.99765C19.7498 6.97792 19.7458 6.95841 19.7402 6.93929C19.7218 6.85908 19.6821 6.78529 19.6254 6.72565L13.0381 0.138353C12.9635 0.067839 12.8681 0.0232799 12.7661 0.0112941C12.7464 0.00941176 12.7275 0 12.7059 0H1.41741C0.636235 0 0 0.633412 0 1.41176V24.9412C0 25.7195 0.638118 26.3529 1.42306 26.3529ZM13.1765 1.60659L18.1581 6.58824H13.6471C13.5223 6.58824 13.4026 6.53866 13.3143 6.4504C13.2261 6.36215 13.1765 6.24246 13.1765 6.11765V1.60659ZM0.941176 1.41176C0.941176 1.152 1.15482 0.941176 1.41741 0.941176H12.2353V6.11765C12.2353 6.896 12.8687 7.52941 13.6471 7.52941H18.8235V24.9412C18.8235 25.066 18.774 25.1857 18.6857 25.2739C18.5974 25.3622 18.4777 25.4118 18.3529 25.4118H1.42306C1.36052 25.4125 1.29844 25.4009 1.24038 25.3777C1.18231 25.3544 1.12939 25.32 1.08465 25.2763C1.0399 25.2326 1.0042 25.1805 0.97958 25.123C0.954963 25.0655 0.941914 25.0037 0.941176 24.9412V1.41176Z" fill="white"/>
<path d="M4.2353 11.2941H15.5294C15.6542 11.2941 15.7739 11.2445 15.8622 11.1562C15.9504 11.068 16 10.9483 16 10.8235C16 10.6987 15.9504 10.579 15.8622 10.4907C15.7739 10.4025 15.6542 10.3529 15.5294 10.3529H4.2353C4.11049 10.3529 3.99079 10.4025 3.90254 10.4907C3.81429 10.579 3.76471 10.6987 3.76471 10.8235C3.76471 10.9483 3.81429 11.068 3.90254 11.1562C3.99079 11.2445 4.11049 11.2941 4.2353 11.2941Z" fill="white"/>
<path d="M4.2353 15.0589H15.5294C15.6542 15.0589 15.7739 15.0093 15.8622 14.921C15.9504 14.8328 16 14.7131 16 14.5883C16 14.4635 15.9504 14.3438 15.8622 14.2555C15.7739 14.1673 15.6542 14.1177 15.5294 14.1177H4.2353C4.11049 14.1177 3.99079 14.1673 3.90254 14.2555C3.81429 14.3438 3.76471 14.4635 3.76471 14.5883C3.76471 14.7131 3.81429 14.8328 3.90254 14.921C3.99079 15.0093 4.11049 15.0589 4.2353 15.0589Z" fill="white"/>
<path d="M4.2353 7.52943H8.94118C9.06599 7.52943 9.18568 7.47985 9.27394 7.3916C9.36219 7.30335 9.41177 7.18365 9.41177 7.05885C9.41177 6.93404 9.36219 6.81434 9.27394 6.72609C9.18568 6.63784 9.06599 6.58826 8.94118 6.58826H4.2353C4.11049 6.58826 3.99079 6.63784 3.90254 6.72609C3.81429 6.81434 3.76471 6.93404 3.76471 7.05885C3.76471 7.18365 3.81429 7.30335 3.90254 7.3916C3.99079 7.47985 4.11049 7.52943 4.2353 7.52943Z" fill="white"/>
<path d="M4.2353 18.8235H15.5294C15.6542 18.8235 15.7739 18.7739 15.8622 18.6857C15.9504 18.5974 16 18.4777 16 18.3529C16 18.2281 15.9504 18.1084 15.8622 18.0202C15.7739 17.9319 15.6542 17.8823 15.5294 17.8823H4.2353C4.11049 17.8823 3.99079 17.9319 3.90254 18.0202C3.81429 18.1084 3.76471 18.2281 3.76471 18.3529C3.76471 18.4777 3.81429 18.5974 3.90254 18.6857C3.99079 18.7739 4.11049 18.8235 4.2353 18.8235Z" fill="white"/>
<path d="M4.2353 22.5883H15.5294C15.6542 22.5883 15.7739 22.5387 15.8622 22.4504C15.9504 22.3622 16 22.2425 16 22.1177C16 21.9929 15.9504 21.8732 15.8622 21.7849C15.7739 21.6967 15.6542 21.6471 15.5294 21.6471H4.2353C4.11049 21.6471 3.99079 21.6967 3.90254 21.7849C3.81429 21.8732 3.76471 21.9929 3.76471 22.1177C3.76471 22.2425 3.81429 22.3622 3.90254 22.4504C3.99079 22.5387 4.11049 22.5883 4.2353 22.5883Z" fill="white"/>
<path d="M20.2353 4.70582H24.4706V9.8823C24.4706 10.6606 25.104 11.2941 25.8823 11.2941H31.0588V28.7058C31.0588 28.8306 31.0092 28.9503 30.921 29.0386C30.8327 29.1268 30.713 29.1764 30.5882 29.1764H13.6583C13.5958 29.1772 13.5337 29.1656 13.4757 29.1423C13.4176 29.1191 13.3647 29.0846 13.3199 29.0409C13.2752 28.9972 13.2395 28.9451 13.2149 28.8876C13.1903 28.8301 13.1772 28.7684 13.1765 28.7058V27.7646C13.1765 27.6398 13.1269 27.5201 13.0386 27.4319C12.9504 27.3436 12.8307 27.2941 12.7059 27.2941C12.5811 27.2941 12.4614 27.3436 12.3731 27.4319C12.2849 27.5201 12.2353 27.6398 12.2353 27.7646V28.7058C12.2353 29.4842 12.8734 30.1176 13.6583 30.1176H30.5882C31.3666 30.1176 32 29.4842 32 28.7058V10.8235C32 10.8018 31.9906 10.783 31.9878 10.7623C31.9851 10.7426 31.981 10.7231 31.9755 10.7039C31.9571 10.6237 31.9174 10.5499 31.8607 10.4903L25.2734 3.903C25.1993 3.8319 25.1036 3.78753 25.0014 3.77688C24.9816 3.77406 24.9628 3.76465 24.9412 3.76465H20.2353C20.1105 3.76465 19.9908 3.81423 19.9025 3.90248C19.8143 3.99073 19.7647 4.11043 19.7647 4.23524C19.7647 4.36004 19.8143 4.47974 19.9025 4.56799C19.9908 4.65625 20.1105 4.70582 20.2353 4.70582ZM25.8823 10.3529C25.7575 10.3529 25.6378 10.3033 25.5496 10.2151C25.4613 10.1268 25.4118 10.0071 25.4118 9.8823V5.37124L30.3934 10.3529H25.8823Z" fill="white"/>
<path d="M22.1177 15.0589H27.7647C27.8895 15.0589 28.0092 15.0093 28.0975 14.921C28.1857 14.8328 28.2353 14.7131 28.2353 14.5883C28.2353 14.4635 28.1857 14.3438 28.0975 14.2555C28.0092 14.1673 27.8895 14.1177 27.7647 14.1177H22.1177C21.9928 14.1177 21.8731 14.1673 21.7849 14.2555C21.6966 14.3438 21.6471 14.4635 21.6471 14.5883C21.6471 14.7131 21.6966 14.8328 21.7849 14.921C21.8731 15.0093 21.9928 15.0589 22.1177 15.0589Z" fill="white"/>
<path d="M22.1177 18.8235H27.7647C27.8895 18.8235 28.0092 18.7739 28.0975 18.6857C28.1857 18.5974 28.2353 18.4777 28.2353 18.3529C28.2353 18.2281 28.1857 18.1084 28.0975 18.0202C28.0092 17.9319 27.8895 17.8823 27.7647 17.8823H22.1177C21.9928 17.8823 21.8731 17.9319 21.7849 18.0202C21.6966 18.1084 21.6471 18.2281 21.6471 18.3529C21.6471 18.4777 21.6966 18.5974 21.7849 18.6857C21.8731 18.7739 21.9928 18.8235 22.1177 18.8235Z" fill="white"/>
<path d="M22.1177 22.5883H27.7647C27.8895 22.5883 28.0092 22.5387 28.0975 22.4504C28.1857 22.3622 28.2353 22.2425 28.2353 22.1177C28.2353 21.9929 28.1857 21.8732 28.0975 21.7849C28.0092 21.6967 27.8895 21.6471 27.7647 21.6471H22.1177C21.9928 21.6471 21.8731 21.6967 21.7849 21.7849C21.6966 21.8732 21.6471 21.9929 21.6471 22.1177C21.6471 22.2425 21.6966 22.3622 21.7849 22.4504C21.8731 22.5387 21.9928 22.5883 22.1177 22.5883Z" fill="white"/>
<path d="M22.1177 26.3529H27.7647C27.8895 26.3529 28.0092 26.3033 28.0975 26.2151C28.1857 26.1268 28.2353 26.0071 28.2353 25.8823C28.2353 25.7575 28.1857 25.6378 28.0975 25.5496C28.0092 25.4613 27.8895 25.4117 27.7647 25.4117H22.1177C21.9928 25.4117 21.8731 25.4613 21.7849 25.5496C21.6966 25.6378 21.6471 25.7575 21.6471 25.8823C21.6471 26.0071 21.6966 26.1268 21.7849 26.2151C21.8731 26.3033 21.9928 26.3529 22.1177 26.3529Z" fill="white"/>
</g>
<defs>
<clipPath id="clip0_1_281">
<rect width="32" height="30.1176" fill="white"/>
</clipPath>
</defs>
</svg>
