<svg width="32" height="32" viewBox="0 0 32 32" fill="none" xmlns="http://www.w3.org/2000/svg">
<path d="M26.6667 18.6667V4L12 6.66667V21.3333" stroke="white" stroke-width="1.5" stroke-linecap="round" stroke-linejoin="round"/>
<path d="M22.6667 25.3333H24C24.7072 25.3333 25.3855 25.0523 25.8856 24.5522C26.3857 24.0521 26.6667 23.3739 26.6667 22.6666V18.6666H22.6667C21.9594 18.6666 21.2811 18.9476 20.781 19.4477C20.281 19.9478 20 20.626 20 21.3333V22.6666C20 23.3739 20.281 24.0521 20.781 24.5522C21.2811 25.0523 21.9594 25.3333 22.6667 25.3333Z" stroke="white" stroke-width="1.5" stroke-linecap="round" stroke-linejoin="round"/>
<path d="M7.99999 28H9.33333C10.0406 28 10.7188 27.7191 11.2189 27.219C11.719 26.7189 12 26.0406 12 25.3334V21.3334H7.99999C7.29275 21.3334 6.61447 21.6143 6.11438 22.1144C5.61428 22.6145 5.33333 23.2928 5.33333 24V25.3334C5.33333 26.0406 5.61428 26.7189 6.11438 27.219C6.61447 27.7191 7.29275 28 7.99999 28Z" stroke="white" stroke-width="1.5" stroke-linecap="round" stroke-linejoin="round"/>
</svg>
