<svg width="32" height="32" viewBox="0 0 32 32" fill="none" xmlns="http://www.w3.org/2000/svg">
<path d="M16 20.5C17.5908 20.4982 19.1158 19.8655 20.2407 18.7407C21.3655 17.6158 21.9982 16.0908 22 14.5V7C22 5.4087 21.3679 3.88258 20.2426 2.75736C19.1174 1.63214 17.5913 1 16 1C14.4087 1 12.8826 1.63214 11.7574 2.75736C10.6321 3.88258 10 5.4087 10 7V14.5C10.0018 16.0908 10.6345 17.6158 11.7593 18.7407C12.8842 19.8655 14.4092 20.4982 16 20.5V20.5ZM12 7C12 5.93913 12.4214 4.92172 13.1716 4.17157C13.9217 3.42143 14.9391 3 16 3C17.0609 3 18.0783 3.42143 18.8284 4.17157C19.5786 4.92172 20 5.93913 20 7V14.5C20 15.5609 19.5786 16.5783 18.8284 17.3284C18.0783 18.0786 17.0609 18.5 16 18.5C14.9391 18.5 13.9217 18.0786 13.1716 17.3284C12.4214 16.5783 12 15.5609 12 14.5V7Z" fill="white"/>
<path d="M25 11V14.5C25 19.4625 20.9625 23.5 16 23.5C11.0375 23.5 7 19.4625 7 14.5V11H5V14.5C5 20.2283 9.4015 24.9471 15 25.4541V31H17V25.4541C22.5985 24.9471 27 20.2283 27 14.5V11H25Z" fill="white"/>
</svg>
