<svg width="140" height="42" viewBox="0 0 140 42" fill="none" xmlns="http://www.w3.org/2000/svg">
<g clip-path="url(#clip0_1_213)">
<path d="M0 5.6C0 2.50721 2.47748 0 5.5336 0H134.466C137.523 0 140 2.50721 140 5.6V36.4C140 39.4928 137.523 42 134.466 42H5.5336C2.47748 42 0 39.4928 0 36.4V5.6Z" fill="black"/>
<path fill-rule="evenodd" clip-rule="evenodd" d="M0 36.4V5.6C0 2.50721 2.47747 0 5.5336 0H134.466C137.523 0 140 2.50721 140 5.6V36.4C140 39.4928 137.523 42 134.466 42H5.5336C2.47748 42 0 39.4928 0 36.4ZM0.830039 36.4V5.6C0.830039 2.97112 2.93589 0.84 5.5336 0.84H134.466C137.064 0.84 139.17 2.97112 139.17 5.6V36.4C139.17 39.0289 137.064 41.16 134.466 41.16H5.5336C2.93589 41.16 0.830039 39.0289 0.830039 36.4Z" fill="white" fill-opacity="0.3"/>
<path d="M31.6368 21.8554C31.6226 19.3938 32.7246 17.5386 34.9502 16.1707C33.7054 14.366 31.8223 13.3734 29.34 13.1821C26.9896 12.9944 24.4181 14.5681 23.4765 14.5681C22.4814 14.5681 20.206 13.2471 18.4155 13.2471C14.7206 13.3048 10.7938 16.2284 10.7938 22.1767C10.7938 23.9344 11.1112 25.7499 11.746 27.6196C12.5949 30.0812 15.655 36.1125 18.8471 36.015C20.5162 35.9753 21.6968 34.8167 23.8688 34.8167C25.9767 34.8167 27.068 36.015 28.9298 36.015C32.1504 35.9681 34.9181 30.4854 35.7241 28.0166C31.405 25.9557 31.6368 21.9818 31.6368 21.8554ZM27.8884 10.8468C29.6966 8.67399 29.5326 6.69605 29.4791 5.985C27.8812 6.07884 26.0337 7.08586 24.9816 8.32388C23.8225 9.65213 23.1412 11.2944 23.2875 13.146C25.0137 13.2795 26.5901 12.3808 27.8884 10.8468Z" fill="white"/>
<path d="M51.1177 30.3934H49.2859L48.2825 27.1877H44.7946L43.8388 30.3934H42.0554L45.5109 19.4798H47.6452L51.1177 30.3934ZM47.98 25.8428L47.0725 22.993C46.9765 22.7019 46.7967 22.0163 46.5313 20.9371H46.499C46.3934 21.4012 46.2232 22.0868 45.9892 22.993L45.0979 25.8428H47.98Z" fill="white"/>
<path d="M60.0042 26.362C60.0042 27.7003 59.6485 28.7582 58.9371 29.5349C58.2998 30.2262 57.5085 30.5714 56.564 30.5714C55.5444 30.5714 54.812 30.1991 54.366 29.4545H54.3337V33.6H52.614V25.1146C52.614 24.2732 52.5922 23.4097 52.5503 22.524H54.0627L54.1587 23.7713H54.1909C54.7644 22.8315 55.6348 22.3624 56.8028 22.3624C57.7158 22.3624 58.4781 22.729 59.0879 23.463C59.6993 24.1978 60.0042 25.1638 60.0042 26.362ZM58.2522 26.4259C58.2522 25.66 58.0829 25.0285 57.7425 24.5315C57.3706 24.0132 56.8713 23.7541 56.2454 23.7541C55.8211 23.7541 55.4355 23.8984 55.0911 24.183C54.7459 24.47 54.52 24.8448 54.4144 25.309C54.3611 25.5255 54.3345 25.7026 54.3345 25.842V27.1542C54.3345 27.7266 54.5071 28.2096 54.8523 28.6041C55.1976 28.9985 55.6461 29.1953 56.1978 29.1953C56.8455 29.1953 57.3496 28.9411 57.7102 28.4343C58.0716 27.9267 58.2522 27.2575 58.2522 26.4259Z" fill="white"/>
<path d="M68.9072 26.362C68.9072 27.7003 68.5514 28.7582 67.8392 29.5349C67.2028 30.2262 66.4115 30.5714 65.4669 30.5714C64.4474 30.5714 63.715 30.1991 63.2697 29.4545H63.2374V33.6H61.5177V25.1146C61.5177 24.2732 61.496 23.4097 61.454 22.524H62.9664L63.0624 23.7713H63.0947C63.6674 22.8315 64.5377 22.3624 65.7065 22.3624C66.6188 22.3624 67.381 22.729 67.9925 23.463C68.6015 24.1978 68.9072 25.1638 68.9072 26.362ZM67.1552 26.4259C67.1552 25.66 66.985 25.0285 66.6446 24.5315C66.2727 24.0132 65.7751 23.7541 65.1483 23.7541C64.7232 23.7541 64.3385 23.8984 63.9932 24.183C63.648 24.47 63.423 24.8448 63.3173 25.309C63.2649 25.5255 63.2374 25.7026 63.2374 25.842V27.1542C63.2374 27.7266 63.4101 28.2096 63.7537 28.6041C64.0989 28.9977 64.5474 29.1953 65.1007 29.1953C65.7484 29.1953 66.2526 28.9411 66.6131 28.4343C66.9745 27.9267 67.1552 27.2575 67.1552 26.4259Z" fill="white"/>
<path d="M78.861 27.333C78.861 28.2613 78.544 29.0166 77.9076 29.5997C77.2082 30.2369 76.2346 30.5551 74.9836 30.5551C73.8285 30.5551 72.9025 30.3288 72.2015 29.8753L72.6 28.418C73.355 28.8821 74.1834 29.1151 75.086 29.1151C75.7337 29.1151 76.2379 28.9658 76.6 28.6689C76.9606 28.3721 77.1405 27.9735 77.1405 27.4765C77.1405 27.0337 76.992 26.6605 76.6944 26.3579C76.3984 26.0553 75.9039 25.774 75.2135 25.5141C73.334 24.8014 72.3951 23.7575 72.3951 22.3846C72.3951 21.4875 72.7242 20.7519 73.3832 20.1794C74.0398 19.6062 74.9158 19.32 76.0112 19.32C76.988 19.32 77.7995 19.493 78.4472 19.8383L78.0173 21.2636C77.4123 20.929 76.7283 20.7617 75.9628 20.7617C75.3578 20.7617 74.8852 20.9134 74.5464 21.2152C74.26 21.485 74.1165 21.8139 74.1165 22.2034C74.1165 22.6348 74.2802 22.9915 74.6093 23.272C74.8956 23.5311 75.4159 23.8116 76.1709 24.1142C77.0945 24.4923 77.7729 24.9343 78.2092 25.4411C78.644 25.9463 78.861 26.5785 78.861 27.333Z" fill="white"/>
<path d="M84.5466 23.8363H82.651V27.657C82.651 28.6288 82.985 29.1143 83.6544 29.1143C83.9618 29.1143 84.2167 29.0873 84.4183 29.0331L84.4659 30.3608C84.1271 30.4896 83.6811 30.5544 83.1285 30.5544C82.4494 30.5544 81.9186 30.3436 81.5355 29.9229C81.1539 29.5014 80.9619 28.7945 80.9619 27.8014V23.8346H79.8327V22.5225H80.9619V21.0816L82.651 20.5633V22.5225H84.5466V23.8363Z" fill="white"/>
<path d="M93.0992 26.3939C93.0992 27.6036 92.7588 28.5967 92.0797 29.3733C91.3674 30.1729 90.4221 30.5714 89.2436 30.5714C88.1079 30.5714 87.2037 30.1885 86.5293 29.4225C85.855 28.6566 85.5178 27.6897 85.5178 26.5243C85.5178 25.3049 85.8647 24.306 86.5608 23.5294C87.2553 22.752 88.1926 22.3632 89.371 22.3632C90.5068 22.3632 91.4207 22.7462 92.1103 23.513C92.7701 24.2568 93.0992 25.2171 93.0992 26.3939ZM91.315 26.4505C91.315 25.7248 91.1625 25.1023 90.8536 24.5832C90.493 23.955 89.9776 23.6418 89.3097 23.6418C88.6185 23.6418 88.0934 23.9558 87.7328 24.5832C87.4239 25.1031 87.2714 25.7354 87.2714 26.4833C87.2714 27.2091 87.4239 27.8315 87.7328 28.3498C88.1047 28.978 88.6241 29.2913 89.2944 29.2913C89.951 29.2913 90.4664 28.9715 90.8383 28.3334C91.1553 27.8045 91.315 27.1755 91.315 26.4505Z" fill="white"/>
<path d="M98.689 24.0616C98.5188 24.0296 98.3373 24.0132 98.1469 24.0132C97.542 24.0132 97.0741 24.2453 96.745 24.7103C96.4587 25.1204 96.3151 25.6386 96.3151 26.2644V30.3935H94.5962L94.6123 25.0023C94.6123 24.0953 94.5905 23.2694 94.5478 22.5248H96.0457L96.1086 24.0305H96.1562C96.3377 23.513 96.624 23.0964 97.016 22.7839C97.3992 22.5027 97.813 22.3624 98.259 22.3624C98.4179 22.3624 98.5615 22.3739 98.689 22.3944V24.0616Z" fill="white"/>
<path d="M106.38 26.0865C106.38 26.3997 106.359 26.6638 106.317 26.8795H101.158C101.178 27.6569 101.427 28.2515 101.906 28.6615C102.341 29.0281 102.903 29.2118 103.594 29.2118C104.357 29.2118 105.054 29.088 105.681 28.8395L105.951 30.0532C105.218 30.378 104.353 30.5395 103.356 30.5395C102.155 30.5395 101.213 30.1803 100.528 29.4627C99.8436 28.7452 99.5008 27.7816 99.5008 26.5728C99.5008 25.3861 99.8194 24.3979 100.457 23.6098C101.125 22.7684 102.028 22.3477 103.164 22.3477C104.279 22.3477 105.124 22.7684 105.697 23.6098C106.151 24.2782 106.38 25.1048 106.38 26.0865ZM104.74 25.633C104.751 25.1147 104.639 24.6669 104.406 24.2888C104.108 23.8025 103.651 23.5598 103.035 23.5598C102.473 23.5598 102.016 23.7968 101.667 24.2724C101.38 24.6505 101.21 25.104 101.158 25.6321H104.74V25.633Z" fill="white"/>
<path d="M47.6299 12.1408C47.6299 13.3205 47.2819 14.2085 46.5869 14.8048C45.9431 15.3551 45.0283 15.6307 43.8433 15.6307C43.2558 15.6307 42.753 15.6047 42.332 15.5525V9.10688C42.8811 9.01668 43.4726 8.97057 44.1114 8.97057C45.2402 8.97057 46.091 9.22014 46.6647 9.71927C47.3075 10.2836 47.6299 11.0904 47.6299 12.1408ZM46.5405 12.1698C46.5405 11.4051 46.3414 10.8188 45.9431 10.4098C45.5448 10.0019 44.9632 9.79745 44.1972 9.79745C43.8719 9.79745 43.5949 9.8195 43.3652 9.86561V14.7658C43.4923 14.7858 43.725 14.7948 44.0631 14.7948C44.8538 14.7948 45.464 14.5713 45.8938 14.1243C46.3236 13.6773 46.5405 13.0258 46.5405 12.1698Z" fill="white"/>
<path d="M53.4059 13.1713C53.4059 13.8979 53.2018 14.4933 52.7937 14.9604C52.3658 15.4405 51.799 15.68 51.0912 15.68C50.409 15.68 49.8658 15.4505 49.4606 14.9894C49.0564 14.5294 48.8543 13.9491 48.8543 13.2495C48.8543 12.5178 49.0623 11.9174 49.4803 11.4514C49.8983 10.9853 50.4602 10.7518 51.1681 10.7518C51.8502 10.7518 52.3984 10.9813 52.8134 11.4414C53.2077 11.8884 53.4059 12.4657 53.4059 13.1713ZM52.3343 13.2054C52.3343 12.7694 52.2416 12.3955 52.0573 12.0838C51.8404 11.707 51.5318 11.5185 51.1306 11.5185C50.7156 11.5185 50.4001 11.707 50.1832 12.0838C49.9979 12.3955 49.9062 12.7754 49.9062 13.2244C49.9062 13.6604 49.9989 14.0343 50.1832 14.346C50.407 14.7228 50.7185 14.9113 51.1207 14.9113C51.5151 14.9113 51.8246 14.7198 52.0474 14.3359C52.2387 14.0182 52.3343 13.6414 52.3343 13.2054Z" fill="white"/>
<path d="M61.1508 10.848L59.6967 15.5727H58.7503L58.148 13.521C57.9952 13.0089 57.871 12.4997 57.7743 11.9946H57.7556C57.6659 12.5137 57.5417 13.0219 57.382 13.521L56.7422 15.5727H55.785L54.4176 10.848H55.4794L56.0048 13.0941C56.132 13.6253 56.2365 14.1314 56.3203 14.6105H56.339C56.4159 14.2156 56.5431 13.7125 56.7225 13.1041L57.382 10.849H58.2239L58.8558 13.056C59.0086 13.5942 59.1328 14.1124 59.2284 14.6115H59.257C59.327 14.1254 59.4325 13.6072 59.5725 13.056L60.1364 10.849H61.1508V10.848Z" fill="white"/>
<path d="M66.5064 15.5727H65.4733V12.8666C65.4733 12.0327 65.1618 11.6157 64.5367 11.6157C64.2302 11.6157 63.9827 11.73 63.7905 11.9595C63.6002 12.189 63.5036 12.4597 63.5036 12.7694V15.5717H62.4705V12.1981C62.4705 11.7831 62.4576 11.3331 62.433 10.846H63.3409L63.3893 11.5847H63.4178C63.5381 11.3551 63.7175 11.1657 63.9531 11.0144C64.2331 10.838 64.5466 10.7488 64.8897 10.7488C65.3234 10.7488 65.6842 10.8911 65.9711 11.1767C66.328 11.5265 66.5064 12.0487 66.5064 12.7423V15.5727Z" fill="white"/>
<path d="M69.3553 15.5727H68.3231V8.68H69.3553V15.5727Z" fill="white"/>
<path d="M75.4378 13.1713C75.4378 13.8979 75.2338 14.4933 74.8256 14.9604C74.3978 15.4405 73.83 15.68 73.1231 15.68C72.4399 15.68 71.8967 15.4505 71.4926 14.9894C71.0884 14.5294 70.8863 13.9491 70.8863 13.2495C70.8863 12.5178 71.0943 11.9174 71.5123 11.4514C71.9303 10.9853 72.4922 10.7518 73.199 10.7518C73.8822 10.7518 74.4293 10.9813 74.8453 11.4414C75.2397 11.8884 75.4378 12.4657 75.4378 13.1713ZM74.3653 13.2054C74.3653 12.7694 74.2726 12.3955 74.0882 12.0838C73.8723 11.707 73.5628 11.5185 73.1625 11.5185C72.7465 11.5185 72.4311 11.707 72.2152 12.0838C72.0298 12.3955 71.9382 12.7754 71.9382 13.2244C71.9382 13.6604 72.0308 14.0343 72.2152 14.346C72.439 14.7228 72.7505 14.9113 73.1527 14.9113C73.547 14.9113 73.8556 14.7198 74.0784 14.3359C74.2706 14.0182 74.3653 13.6414 74.3653 13.2054Z" fill="white"/>
<path d="M80.438 15.5728H79.5103L79.4334 15.0285H79.4049C79.0874 15.4625 78.6349 15.68 78.0474 15.68C77.6087 15.68 77.2538 15.5367 76.9866 15.252C76.7441 14.9934 76.6229 14.6717 76.6229 14.2898C76.6229 13.7125 76.8595 13.2725 77.3356 12.9678C77.8108 12.6631 78.4792 12.5138 79.3398 12.5208V12.4326C79.3398 11.8102 79.0184 11.4995 78.3747 11.4995C77.9163 11.4995 77.5121 11.6168 77.1631 11.8493L76.9531 11.1597C77.3849 10.8881 77.9182 10.7518 78.5472 10.7518C79.7617 10.7518 80.371 11.4033 80.371 12.7062V14.4462C80.371 14.9183 80.3936 15.2941 80.438 15.5728ZM79.3654 13.9491V13.2204C78.2258 13.2004 77.656 13.5181 77.656 14.1726C77.656 14.4191 77.7211 14.6036 77.8541 14.7268C77.9872 14.8501 78.1568 14.9113 78.3589 14.9113C78.5856 14.9113 78.7976 14.8381 78.9908 14.6928C79.185 14.5464 79.3043 14.361 79.3487 14.1335C79.3595 14.0824 79.3654 14.0202 79.3654 13.9491Z" fill="white"/>
<path d="M86.3085 15.5727H85.3916L85.3433 14.8139H85.3148C85.022 15.3913 84.5231 15.6799 83.8222 15.6799C83.2623 15.6799 82.796 15.4564 82.4263 15.0094C82.0566 14.5624 81.8723 13.9821 81.8723 13.2694C81.8723 12.5047 82.0724 11.8853 82.4746 11.4122C82.864 10.9712 83.3411 10.7507 83.909 10.7507C84.533 10.7507 84.9697 10.9642 85.2181 11.3922H85.2379V8.68H86.272V14.2998C86.272 14.7598 86.2838 15.1838 86.3085 15.5727ZM85.2379 13.5801V12.7924C85.2379 12.656 85.228 12.5458 85.2093 12.4616C85.1511 12.209 85.0259 11.9965 84.8356 11.8252C84.6434 11.6538 84.4117 11.5676 84.1446 11.5676C83.7591 11.5676 83.4575 11.7229 83.2356 12.0346C83.0158 12.3463 82.9044 12.7442 82.9044 13.2303C82.9044 13.6974 83.0099 14.0763 83.2218 14.3679C83.4456 14.6786 83.7473 14.834 84.1249 14.834C84.464 14.834 84.7351 14.7047 84.9411 14.4451C85.1403 14.2056 85.2379 13.9169 85.2379 13.5801Z" fill="white"/>
<path d="M95.1449 13.1713C95.1449 13.8979 94.9408 14.4933 94.5327 14.9604C94.1048 15.4405 93.539 15.68 92.8301 15.68C92.1489 15.68 91.6058 15.4505 91.1996 14.9894C90.7954 14.5294 90.5933 13.9491 90.5933 13.2495C90.5933 12.5178 90.8013 11.9174 91.2193 11.4514C91.6373 10.9853 92.1992 10.7518 92.908 10.7518C93.5892 10.7518 94.1383 10.9813 94.5524 11.4414C94.9467 11.8884 95.1449 12.4657 95.1449 13.1713ZM94.0743 13.2054C94.0743 12.7694 93.9816 12.3955 93.7972 12.0838C93.5794 11.707 93.2718 11.5185 92.8696 11.5185C92.4555 11.5185 92.1401 11.707 91.9222 12.0838C91.7369 12.3955 91.6452 12.7754 91.6452 13.2244C91.6452 13.6604 91.7378 14.0343 91.9222 14.346C92.146 14.7228 92.4575 14.9113 92.8597 14.9113C93.254 14.9113 93.5646 14.7198 93.7874 14.3359C93.9776 14.0182 94.0743 13.6414 94.0743 13.2054Z" fill="white"/>
<path d="M100.7 15.5727H99.6675V12.8666C99.6675 12.0327 99.356 11.6157 98.73 11.6157C98.4234 11.6157 98.176 11.73 97.9847 11.9595C97.7935 12.189 97.6978 12.4597 97.6978 12.7694V15.5717H96.6637V12.1981C96.6637 11.7831 96.6519 11.3331 96.6272 10.846H97.5342L97.5825 11.5847H97.6111C97.7323 11.3551 97.9118 11.1657 98.1464 11.0144C98.4274 10.838 98.7399 10.7488 99.0839 10.7488C99.5167 10.7488 99.8775 10.8911 100.164 11.1767C100.522 11.5265 100.7 12.0487 100.7 12.7423V15.5727Z" fill="white"/>
<path d="M107.652 11.6348H106.515V13.93C106.515 14.5133 106.717 14.805 107.117 14.805C107.302 14.805 107.456 14.789 107.578 14.7559L107.604 15.5527C107.4 15.6309 107.132 15.67 106.802 15.67C106.394 15.67 106.076 15.5437 105.846 15.2911C105.616 15.0385 105.501 14.6136 105.501 14.0172V11.6348H104.822V10.848H105.501V9.98203L106.514 9.67132V10.847H107.651V11.6348H107.652Z" fill="white"/>
<path d="M113.122 15.5727H112.088V12.8866C112.088 12.0396 111.776 11.6157 111.152 11.6157C110.673 11.6157 110.346 11.8612 110.167 12.3524C110.136 12.4556 110.118 12.5819 110.118 12.7302V15.5717H109.086V8.68H110.118V11.5275H110.138C110.463 11.0093 110.93 10.7507 111.534 10.7507C111.962 10.7507 112.316 10.893 112.597 11.1787C112.947 11.5345 113.122 12.0637 113.122 12.7633V15.5727Z" fill="white"/>
<path d="M118.764 12.9868C118.764 13.1752 118.751 13.3336 118.726 13.4629H115.628C115.641 13.9299 115.789 14.2858 116.076 14.5323C116.338 14.7528 116.677 14.8631 117.091 14.8631C117.549 14.8631 117.967 14.7889 118.344 14.6396L118.505 15.3692C118.065 15.5637 117.546 15.6609 116.946 15.6609C116.226 15.6609 115.659 15.4454 115.249 15.0144C114.837 14.5834 114.633 14.0051 114.633 13.2795C114.633 12.5668 114.823 11.9735 115.207 11.5004C115.607 10.9953 116.148 10.7427 116.831 10.7427C117.5 10.7427 118.007 10.9953 118.35 11.5004C118.627 11.9013 118.764 12.3975 118.764 12.9868ZM117.779 12.7152C117.787 12.4035 117.719 12.1349 117.579 11.9083C117.399 11.6167 117.126 11.4703 116.756 11.4703C116.419 11.4703 116.144 11.6127 115.934 11.8983C115.763 12.1258 115.661 12.3975 115.628 12.7152H117.779Z" fill="white"/>
</g>
<defs>
<clipPath id="clip0_1_213">
<rect width="140" height="42" fill="white"/>
</clipPath>
</defs>
</svg>
