<svg width="336" height="86" viewBox="0 0 336 86" fill="none" xmlns="http://www.w3.org/2000/svg">
<path d="M335 43C335 48.3768 330.722 53.7734 322.28 58.882C313.898 63.954 301.703 68.5572 286.546 72.4368C256.246 80.1921 214.333 85 168 85C121.667 85 79.7539 80.1921 49.454 72.4368C34.2965 68.5572 22.1016 63.954 13.72 58.882C5.27794 53.7734 1 48.3768 1 43C1 37.6232 5.27794 32.2266 13.72 27.118C22.1016 22.046 34.2965 17.4428 49.454 13.5632C79.7539 5.80786 121.667 1 168 1C214.333 1 256.246 5.80786 286.546 13.5632C301.703 17.4428 313.898 22.046 322.28 27.118C330.722 32.2266 335 37.6232 335 43Z" stroke="#2CD7CB" stroke-width="2"/>
</svg>
