<svg width="460" height="70" viewBox="0 0 460 70" fill="none" xmlns="http://www.w3.org/2000/svg">
<rect width="460" height="70" rx="10" fill="white"/>
<rect width="24" height="24" transform="translate(95.5 23)" fill="white"/>
<path fill-rule="evenodd" clip-rule="evenodd" d="M118.54 35.2615C118.54 34.446 118.467 33.6619 118.331 32.9092H107.5V37.3576H113.689C113.422 38.7951 112.612 40.013 111.394 40.8285V43.714H115.111C117.285 41.7119 118.54 38.7637 118.54 35.2615Z" fill="#4285F4"/>
<path fill-rule="evenodd" clip-rule="evenodd" d="M107.5 46.4998C110.605 46.4998 113.208 45.47 115.111 43.7137L111.394 40.8282C110.364 41.5182 109.047 41.9259 107.5 41.9259C104.505 41.9259 101.969 39.903 101.065 37.1848H97.2231V40.1644C99.1154 43.9228 103.004 46.4998 107.5 46.4998Z" fill="#34A853"/>
<path fill-rule="evenodd" clip-rule="evenodd" d="M101.065 37.185C100.835 36.495 100.705 35.7579 100.705 35C100.705 34.242 100.835 33.505 101.065 32.815V29.8354H97.2232C96.4443 31.3879 96 33.1443 96 35C96 36.8557 96.4443 38.612 97.2232 40.1645L101.065 37.185Z" fill="#FBBC05"/>
<path fill-rule="evenodd" clip-rule="evenodd" d="M107.5 28.0739C109.188 28.0739 110.704 28.6541 111.896 29.7936L115.194 26.4952C113.203 24.6395 110.6 23.5 107.5 23.5C103.004 23.5 99.1154 26.077 97.2231 29.8355L101.065 32.815C101.969 30.0968 104.505 28.0739 107.5 28.0739Z" fill="#EA4335"/>
<path d="M141.988 44.36C140.74 44.36 139.54 44.232 138.388 43.976C137.252 43.704 136.332 43.328 135.628 42.848C135.388 42.672 135.268 42.512 135.268 42.368C135.268 42.272 135.308 42.16 135.388 42.032L136.372 40.472C136.468 40.312 136.572 40.232 136.684 40.232C136.78 40.232 136.9 40.28 137.044 40.376C137.636 40.712 138.316 40.984 139.084 41.192C139.852 41.4 140.628 41.504 141.412 41.504C142.34 41.504 143.028 41.36 143.476 41.072C143.924 40.768 144.148 40.296 144.148 39.656C144.148 39.224 144.036 38.872 143.812 38.6C143.604 38.328 143.284 38.088 142.852 37.88C142.436 37.672 141.788 37.4 140.908 37.064C139.884 36.68 139.012 36.288 138.292 35.888C137.588 35.488 137.004 34.976 136.54 34.352C136.092 33.712 135.868 32.936 135.868 32.024C135.868 30.504 136.42 29.344 137.524 28.544C138.628 27.728 140.084 27.32 141.892 27.32C144.276 27.32 146.1 27.768 147.364 28.664C147.604 28.856 147.724 29.016 147.724 29.144C147.724 29.24 147.684 29.352 147.604 29.48L146.62 31.04C146.524 31.2 146.42 31.28 146.308 31.28C146.212 31.28 146.092 31.232 145.948 31.136C144.972 30.496 143.788 30.176 142.396 30.176C140.668 30.176 139.804 30.8 139.804 32.048C139.804 32.464 139.9 32.808 140.092 33.08C140.3 33.336 140.58 33.56 140.932 33.752C141.284 33.928 141.836 34.16 142.588 34.448L143.26 34.712C144.428 35.176 145.348 35.616 146.02 36.032C146.692 36.432 147.204 36.928 147.556 37.52C147.924 38.112 148.108 38.872 148.108 39.8C148.108 41.192 147.58 42.304 146.524 43.136C145.484 43.952 143.972 44.36 141.988 44.36ZM151.508 30.872C151.06 30.872 150.708 30.744 150.452 30.488C150.196 30.232 150.068 29.92 150.068 29.552V29C150.068 28.632 150.196 28.32 150.452 28.064C150.708 27.808 151.06 27.68 151.508 27.68H152.9C153.364 27.68 153.724 27.808 153.98 28.064C154.236 28.32 154.364 28.632 154.364 29V29.552C154.364 29.92 154.236 30.232 153.98 30.488C153.724 30.744 153.364 30.872 152.9 30.872H151.508ZM151.316 44C150.916 44 150.636 43.92 150.476 43.76C150.316 43.584 150.236 43.32 150.236 42.968V33.536C150.236 33.168 150.316 32.904 150.476 32.744C150.636 32.568 150.916 32.48 151.316 32.48H153.092C153.492 32.48 153.772 32.568 153.932 32.744C154.108 32.92 154.196 33.184 154.196 33.536V42.968C154.196 43.32 154.108 43.584 153.932 43.76C153.772 43.92 153.492 44 153.092 44H151.316ZM163.034 48.08C162.058 48.08 161.114 47.984 160.202 47.792C159.29 47.6 158.586 47.344 158.09 47.024C157.978 46.928 157.922 46.824 157.922 46.712C157.922 46.632 157.946 46.552 157.994 46.472L158.858 45.008C158.906 44.928 158.954 44.856 159.002 44.792C159.066 44.744 159.13 44.72 159.194 44.72C159.226 44.72 159.322 44.752 159.482 44.816C160.234 45.2 161.298 45.392 162.674 45.392C163.586 45.392 164.258 45.184 164.69 44.768C165.138 44.352 165.362 43.656 165.362 42.68C164.594 43.4 163.514 43.76 162.122 43.76C160.266 43.76 158.834 43.28 157.826 42.32C156.834 41.36 156.338 39.992 156.338 38.216C156.338 36.232 156.938 34.72 158.138 33.68C159.354 32.64 161.122 32.12 163.442 32.12C164.562 32.12 165.642 32.28 166.682 32.6C167.722 32.904 168.578 33.288 169.25 33.752V41.576C169.25 43.544 168.754 45.12 167.762 46.304C166.77 47.488 165.194 48.08 163.034 48.08ZM162.986 40.952C163.722 40.952 164.298 40.768 164.714 40.4C165.146 40.016 165.362 39.48 165.362 38.792V35.192C164.818 34.968 164.106 34.856 163.226 34.856C162.25 34.872 161.514 35.12 161.018 35.6C160.522 36.08 160.274 36.88 160.274 38C160.274 39.008 160.49 39.752 160.922 40.232C161.37 40.712 162.058 40.952 162.986 40.952ZM172.805 44C172.405 44 172.117 43.92 171.941 43.76C171.781 43.584 171.701 43.32 171.701 42.968V33.176C171.701 32.904 171.749 32.72 171.845 32.624C171.941 32.528 172.133 32.48 172.421 32.48H174.341C174.533 32.48 174.677 32.512 174.773 32.576C174.869 32.64 174.925 32.752 174.941 32.912L175.013 33.752C175.509 33.24 176.133 32.84 176.885 32.552C177.637 32.264 178.493 32.12 179.453 32.12C180.765 32.12 181.813 32.48 182.597 33.2C183.397 33.904 183.797 34.96 183.797 36.368V42.968C183.797 43.32 183.709 43.584 183.533 43.76C183.373 43.92 183.101 44 182.717 44H180.917C180.517 44 180.229 43.92 180.053 43.76C179.893 43.584 179.813 43.32 179.813 42.968V36.608C179.813 35.984 179.677 35.536 179.405 35.264C179.133 34.992 178.685 34.856 178.061 34.856C177.389 34.856 176.821 35.04 176.357 35.408C175.893 35.76 175.661 36.224 175.661 36.8V42.968C175.661 43.32 175.581 43.584 175.421 43.76C175.261 43.92 174.981 44 174.581 44H172.805ZM195.843 44C195.459 44 195.179 43.92 195.003 43.76C194.843 43.584 194.763 43.32 194.763 42.968V28.736C194.763 28.384 194.843 28.12 195.003 27.944C195.179 27.768 195.459 27.68 195.843 27.68H197.643C198.043 27.68 198.323 27.768 198.483 27.944C198.643 28.104 198.723 28.368 198.723 28.736V42.968C198.723 43.32 198.643 43.584 198.483 43.76C198.323 43.92 198.043 44 197.643 44H195.843ZM202.266 44C201.866 44 201.578 43.92 201.402 43.76C201.242 43.584 201.162 43.32 201.162 42.968V33.176C201.162 32.904 201.21 32.72 201.306 32.624C201.402 32.528 201.594 32.48 201.882 32.48H203.802C203.994 32.48 204.138 32.512 204.234 32.576C204.33 32.64 204.386 32.752 204.402 32.912L204.474 33.752C204.97 33.24 205.594 32.84 206.346 32.552C207.098 32.264 207.954 32.12 208.914 32.12C210.226 32.12 211.274 32.48 212.057 33.2C212.858 33.904 213.258 34.96 213.258 36.368V42.968C213.258 43.32 213.17 43.584 212.994 43.76C212.834 43.92 212.562 44 212.178 44H210.378C209.978 44 209.69 43.92 209.514 43.76C209.354 43.584 209.274 43.32 209.274 42.968V36.608C209.274 35.984 209.138 35.536 208.866 35.264C208.594 34.992 208.146 34.856 207.522 34.856C206.85 34.856 206.282 35.04 205.818 35.408C205.354 35.76 205.122 36.224 205.122 36.8V42.968C205.122 43.32 205.042 43.584 204.882 43.76C204.722 43.92 204.442 44 204.042 44H202.266ZM227.728 44C227.504 44 227.336 43.96 227.224 43.88C227.128 43.8 227.048 43.656 226.984 43.448L223.792 33.008C223.776 32.96 223.768 32.896 223.768 32.816C223.768 32.592 223.912 32.48 224.2 32.48H226.696C226.904 32.48 227.048 32.512 227.128 32.576C227.224 32.64 227.288 32.752 227.32 32.912L229 39.32L231.016 33.968C231.08 33.792 231.152 33.672 231.232 33.608C231.328 33.528 231.472 33.488 231.664 33.488H232.936C233.128 33.488 233.264 33.528 233.344 33.608C233.44 33.672 233.52 33.792 233.584 33.968L235.576 39.32L237.28 32.912C237.312 32.752 237.368 32.64 237.448 32.576C237.528 32.512 237.672 32.48 237.88 32.48H240.4C240.768 32.48 240.904 32.656 240.808 33.008L237.592 43.448C237.528 43.656 237.44 43.8 237.328 43.88C237.232 43.96 237.08 44 236.872 44H235C234.792 44 234.64 43.96 234.544 43.88C234.448 43.8 234.36 43.656 234.28 43.448L232.288 38.048L230.296 43.448C230.216 43.656 230.128 43.8 230.032 43.88C229.936 43.96 229.784 44 229.576 44H227.728ZM243.664 30.872C243.216 30.872 242.864 30.744 242.608 30.488C242.352 30.232 242.224 29.92 242.224 29.552V29C242.224 28.632 242.352 28.32 242.608 28.064C242.864 27.808 243.216 27.68 243.664 27.68H245.056C245.52 27.68 245.88 27.808 246.136 28.064C246.392 28.32 246.52 28.632 246.52 29V29.552C246.52 29.92 246.392 30.232 246.136 30.488C245.88 30.744 245.52 30.872 245.056 30.872H243.664ZM243.472 44C243.072 44 242.792 43.92 242.632 43.76C242.472 43.584 242.392 43.32 242.392 42.968V33.536C242.392 33.168 242.472 32.904 242.632 32.744C242.792 32.568 243.072 32.48 243.472 32.48H245.248C245.648 32.48 245.928 32.568 246.088 32.744C246.264 32.92 246.352 33.184 246.352 33.536V42.968C246.352 43.32 246.264 43.584 246.088 43.76C245.928 43.92 245.648 44 245.248 44H243.472ZM254.614 44.36C253.158 44.36 252.054 43.96 251.302 43.16C250.55 42.36 250.174 41.256 250.174 39.848V35.264H248.998C248.614 35.264 248.358 35.192 248.23 35.048C248.102 34.904 248.038 34.648 248.038 34.28V33.488C248.038 33.12 248.102 32.864 248.23 32.72C248.358 32.56 248.614 32.48 248.998 32.48H250.174V31.52C250.174 31.168 250.246 30.824 250.39 30.488C250.55 30.136 250.774 29.704 251.062 29.192C251.19 28.968 251.31 28.824 251.422 28.76C251.534 28.68 251.734 28.64 252.022 28.64H253.126C253.494 28.64 253.75 28.72 253.894 28.88C254.054 29.04 254.134 29.296 254.134 29.648V32.48H256.51C256.894 32.48 257.15 32.56 257.278 32.72C257.406 32.864 257.47 33.12 257.47 33.488V34.28C257.47 34.648 257.406 34.904 257.278 35.048C257.15 35.192 256.894 35.264 256.51 35.264H254.134V39.752C254.134 40.376 254.246 40.824 254.47 41.096C254.694 41.368 255.07 41.504 255.598 41.504C255.918 41.504 256.182 41.464 256.39 41.384C256.614 41.304 256.862 41.176 257.134 41C257.262 40.92 257.358 40.88 257.422 40.88C257.566 40.88 257.686 40.968 257.782 41.144L258.67 42.656C258.75 42.784 258.79 42.888 258.79 42.968C258.79 43.08 258.694 43.2 258.502 43.328C257.494 44.016 256.198 44.36 254.614 44.36ZM261.398 44C260.998 44 260.71 43.92 260.534 43.76C260.374 43.584 260.294 43.32 260.294 42.968V28.376C260.294 28.104 260.342 27.92 260.438 27.824C260.534 27.728 260.726 27.68 261.014 27.68H263.246C263.534 27.68 263.726 27.728 263.822 27.824C263.934 27.92 263.99 28.104 263.99 28.376V33.488C265.03 32.576 266.382 32.12 268.046 32.12C269.358 32.12 270.406 32.48 271.19 33.2C271.99 33.904 272.39 34.96 272.39 36.368V42.968C272.39 43.32 272.302 43.584 272.126 43.76C271.966 43.92 271.694 44 271.31 44H269.51C269.11 44 268.822 43.92 268.646 43.76C268.486 43.584 268.406 43.32 268.406 42.968V36.608C268.406 35.984 268.262 35.536 267.974 35.264C267.686 34.992 267.246 34.856 266.654 34.856C265.998 34.856 265.43 35.04 264.95 35.408C264.486 35.76 264.254 36.224 264.254 36.8V42.968C264.254 43.32 264.174 43.584 264.014 43.76C263.854 43.92 263.574 44 263.174 44H261.398ZM291.637 44.36C288.853 44.36 286.693 43.632 285.157 42.176C283.637 40.704 282.877 38.592 282.877 35.84C282.877 33.088 283.645 30.984 285.181 29.528C286.717 28.056 288.869 27.32 291.637 27.32C292.805 27.32 293.877 27.44 294.853 27.68C295.829 27.904 296.637 28.232 297.277 28.664C297.453 28.776 297.541 28.904 297.541 29.048C297.541 29.112 297.501 29.224 297.421 29.384L296.509 30.92C296.397 31.096 296.285 31.184 296.173 31.184C296.093 31.184 295.965 31.136 295.789 31.04C294.733 30.464 293.517 30.176 292.141 30.176C290.477 30.176 289.173 30.648 288.229 31.592C287.285 32.536 286.813 33.952 286.813 35.84C286.813 37.744 287.253 39.16 288.133 40.088C289.013 41.016 290.253 41.48 291.853 41.48C292.365 41.48 292.869 41.44 293.365 41.36C293.861 41.28 294.261 41.168 294.565 41.024V37.328H291.949C291.565 37.328 291.301 37.256 291.157 37.112C291.013 36.952 290.941 36.688 290.941 36.32V35.456C290.941 35.104 291.013 34.856 291.157 34.712C291.301 34.552 291.565 34.472 291.949 34.472H297.037C297.485 34.472 297.797 34.576 297.973 34.784C298.165 34.992 298.261 35.312 298.261 35.744V41.84C298.261 42.112 298.229 42.32 298.165 42.464C298.101 42.608 297.973 42.744 297.781 42.872C296.229 43.864 294.181 44.36 291.637 44.36ZM306.472 44.36C304.344 44.36 302.688 43.816 301.504 42.728C300.336 41.624 299.752 40.128 299.752 38.24C299.752 36.352 300.336 34.864 301.504 33.776C302.688 32.672 304.344 32.12 306.472 32.12C308.616 32.12 310.272 32.672 311.44 33.776C312.624 34.864 313.216 36.352 313.216 38.24C313.216 40.128 312.624 41.624 311.44 42.728C310.272 43.816 308.616 44.36 306.472 44.36ZM306.472 41.504C307.384 41.504 308.08 41.232 308.56 40.688C309.04 40.144 309.28 39.328 309.28 38.24C309.28 37.168 309.04 36.36 308.56 35.816C308.08 35.272 307.384 35 306.472 35C305.576 35 304.888 35.272 304.408 35.816C303.928 36.36 303.688 37.168 303.688 38.24C303.688 39.312 303.928 40.128 304.408 40.688C304.888 41.232 305.576 41.504 306.472 41.504ZM320.816 44.36C318.688 44.36 317.032 43.816 315.848 42.728C314.68 41.624 314.096 40.128 314.096 38.24C314.096 36.352 314.68 34.864 315.848 33.776C317.032 32.672 318.688 32.12 320.816 32.12C322.96 32.12 324.616 32.672 325.784 33.776C326.968 34.864 327.56 36.352 327.56 38.24C327.56 40.128 326.968 41.624 325.784 42.728C324.616 43.816 322.96 44.36 320.816 44.36ZM320.816 41.504C321.728 41.504 322.424 41.232 322.904 40.688C323.384 40.144 323.624 39.328 323.624 38.24C323.624 37.168 323.384 36.36 322.904 35.816C322.424 35.272 321.728 35 320.816 35C319.92 35 319.232 35.272 318.752 35.816C318.272 36.36 318.032 37.168 318.032 38.24C318.032 39.312 318.272 40.128 318.752 40.688C319.232 41.232 319.92 41.504 320.816 41.504ZM335.745 48.08C334.769 48.08 333.825 47.984 332.913 47.792C332.001 47.6 331.297 47.344 330.801 47.024C330.689 46.928 330.633 46.824 330.633 46.712C330.633 46.632 330.657 46.552 330.705 46.472L331.569 45.008C331.617 44.928 331.665 44.856 331.713 44.792C331.777 44.744 331.841 44.72 331.905 44.72C331.937 44.72 332.033 44.752 332.193 44.816C332.945 45.2 334.009 45.392 335.385 45.392C336.297 45.392 336.969 45.184 337.401 44.768C337.849 44.352 338.073 43.656 338.073 42.68C337.305 43.4 336.225 43.76 334.833 43.76C332.977 43.76 331.545 43.28 330.537 42.32C329.545 41.36 329.049 39.992 329.049 38.216C329.049 36.232 329.649 34.72 330.849 33.68C332.065 32.64 333.833 32.12 336.153 32.12C337.273 32.12 338.353 32.28 339.393 32.6C340.433 32.904 341.289 33.288 341.961 33.752V41.576C341.961 43.544 341.465 45.12 340.473 46.304C339.481 47.488 337.905 48.08 335.745 48.08ZM335.697 40.952C336.433 40.952 337.009 40.768 337.425 40.4C337.857 40.016 338.073 39.48 338.073 38.792V35.192C337.529 34.968 336.817 34.856 335.937 34.856C334.961 34.872 334.225 35.12 333.729 35.6C333.233 36.08 332.985 36.88 332.985 38C332.985 39.008 333.201 39.752 333.633 40.232C334.081 40.712 334.769 40.952 335.697 40.952ZM345.492 44C345.108 44 344.828 43.92 344.652 43.76C344.492 43.584 344.412 43.32 344.412 42.968V28.736C344.412 28.384 344.492 28.12 344.652 27.944C344.828 27.768 345.108 27.68 345.492 27.68H347.292C347.692 27.68 347.972 27.768 348.132 27.944C348.292 28.104 348.372 28.368 348.372 28.736V42.968C348.372 43.32 348.292 43.584 348.132 43.76C347.972 43.92 347.692 44 347.292 44H345.492ZM357.17 44.36C355.874 44.36 354.706 44.144 353.666 43.712C352.642 43.264 351.826 42.6 351.218 41.72C350.626 40.824 350.33 39.72 350.33 38.408C350.33 36.36 350.89 34.8 352.01 33.728C353.146 32.656 354.762 32.12 356.858 32.12C358.922 32.12 360.482 32.64 361.538 33.68C362.61 34.72 363.146 36.2 363.146 38.12C363.146 38.792 362.842 39.128 362.234 39.128H354.074C354.074 39.992 354.394 40.664 355.034 41.144C355.69 41.608 356.586 41.84 357.722 41.84C358.394 41.84 358.978 41.776 359.474 41.648C359.97 41.504 360.45 41.304 360.914 41.048C361.074 40.968 361.186 40.928 361.25 40.928C361.362 40.928 361.466 41.016 361.562 41.192L362.258 42.488C362.322 42.6 362.354 42.696 362.354 42.776C362.354 42.904 362.266 43.032 362.09 43.16C361.45 43.576 360.73 43.88 359.93 44.072C359.13 44.264 358.21 44.36 357.17 44.36ZM359.594 37.064C359.594 36.264 359.37 35.64 358.922 35.192C358.474 34.744 357.794 34.52 356.882 34.52C355.97 34.52 355.274 34.752 354.794 35.216C354.314 35.664 354.074 36.28 354.074 37.064H359.594Z" fill="black" fill-opacity="0.54"/>
</svg>
