<svg width="140" height="42" viewBox="0 0 140 42" fill="none" xmlns="http://www.w3.org/2000/svg">
<g clip-path="url(#clip0_1_211)">
<path d="M0 5.6C0 2.50721 2.47748 0 5.5336 0H134.466C137.523 0 140 2.50721 140 5.6V36.4C140 39.4928 137.523 42 134.466 42H5.5336C2.47748 42 0 39.4928 0 36.4V5.6Z" fill="black"/>
<path fill-rule="evenodd" clip-rule="evenodd" d="M0 36.4V5.6C0 2.50721 2.47747 0 5.5336 0H134.466C137.523 0 140 2.50721 140 5.6V36.4C140 39.4928 137.523 42 134.466 42H5.5336C2.47748 42 0 39.4928 0 36.4ZM0.830039 36.4V5.6C0.830039 2.97112 2.93589 0.84 5.5336 0.84H134.466C137.064 0.84 139.17 2.97112 139.17 5.6V36.4C139.17 39.0289 137.064 41.16 134.466 41.16H5.5336C2.93589 41.16 0.830039 39.0289 0.830039 36.4Z" fill="white" fill-opacity="0.3"/>
<path d="M29.5195 25.5031C32.8344 23.644 35.3476 22.2277 35.5642 22.1177C36.2569 21.7412 36.9726 20.7451 35.5642 19.9715C35.1094 19.7283 32.661 18.3558 29.5195 16.5862L25.1649 21.0776L29.5193 25.5031H29.5195Z" fill="#FFD900"/>
<path d="M25.1649 21.0776L11.2987 35.3501C11.624 35.3942 11.9915 35.306 12.4249 35.0627C13.3344 34.5544 22.976 29.1768 29.5198 25.504L25.1649 21.0776Z" fill="#F43249"/>
<path d="M25.1649 21.0776L29.5193 16.608C29.5193 16.608 13.4002 7.62396 12.4247 7.09385C12.0577 6.87095 11.6458 6.80505 11.2774 6.87095L25.1649 21.0773V21.0776Z" fill="#00EE76"/>
<path d="M25.1649 21.0777L11.2772 6.8713C10.7135 7.00431 10.2372 7.51286 10.2372 8.55249V33.6683C10.2372 34.6204 10.6058 35.3061 11.2985 35.372L25.1647 21.0774L25.1649 21.0777Z" fill="#00D3FF"/>
<path d="M70.9365 22.8171C68.4451 22.8171 66.3866 24.7861 66.3866 27.4858C66.3866 30.1635 68.4235 32.1546 70.9367 32.1546C73.4497 32.1546 75.4863 30.1855 75.4863 27.4858C75.4863 24.7861 73.4497 22.8171 70.9365 22.8171ZM70.9365 30.2967C69.5712 30.2967 68.3803 29.1236 68.3803 27.465C68.3803 25.7833 69.5722 24.6332 70.9365 24.6332C72.3008 24.6332 73.4926 25.7833 73.4926 27.465C73.4926 29.1236 72.3008 30.2967 70.9365 30.2967ZM61.0351 22.8171C58.5219 22.8171 56.4851 24.7861 56.4851 27.4858C56.4851 30.1635 58.5219 32.1546 61.0351 32.1546C63.5481 32.1546 65.585 30.1855 65.585 27.4858C65.585 24.7861 63.5481 22.8171 61.0349 22.8171H61.0351ZM61.0351 30.2967C59.6696 30.2967 58.479 29.1236 58.479 27.465C58.479 25.7833 59.6708 24.6332 61.0351 24.6332C62.4004 24.6332 63.5913 25.7833 63.5913 27.465C63.5913 29.1236 62.4208 30.2967 61.0351 30.2967ZM49.2704 24.2555V26.2245H53.8632C53.7327 27.3307 53.3655 28.1494 52.8234 28.703C52.152 29.3887 51.112 30.1414 49.2704 30.1414C46.4317 30.1414 44.2442 27.7962 44.2442 24.8973C44.2442 21.9984 46.4328 19.6088 49.2704 19.6088C50.8081 19.6088 51.9138 20.2285 52.737 21.0254L54.1013 19.6308C52.9527 18.5028 51.4149 17.64 49.2704 17.64C45.3916 17.64 42.1416 20.8921 42.1416 24.8532C42.1416 28.8145 45.3916 32.0666 49.2704 32.0666C51.3718 32.0666 52.9323 31.3589 54.1887 30.0305C55.4669 28.7251 55.8569 26.8881 55.8569 25.4058C55.8569 24.9414 55.8139 24.5208 55.7482 24.1666L49.2704 24.2555ZM97.4124 25.7821C97.0438 24.742 95.8745 22.8171 93.5337 22.8171C91.1932 22.8171 89.2652 24.6981 89.2652 27.4858C89.2652 30.0964 91.1932 32.1546 93.7505 32.1546C95.8303 32.1546 97.0222 30.8491 97.5201 30.0964L95.9824 29.0345C95.4619 29.8093 94.769 30.3176 93.7505 30.3176C92.7321 30.3176 92.0176 29.8531 91.5618 28.9012L97.6065 26.3127L97.4124 25.7821ZM91.2589 27.3538C91.216 25.5609 92.6244 24.632 93.6201 24.632C94.4219 24.632 95.0719 25.0303 95.3099 25.628L91.2589 27.3538ZM86.3406 31.8452H88.3343V18.1704H86.3406V31.8452ZM83.0915 23.8572H83.0267C82.572 23.3036 81.7272 22.8171 80.643 22.8171C78.368 22.8171 76.3098 24.8752 76.3098 27.4858C76.3098 30.0964 78.3896 32.1327 80.643 32.1327C81.726 32.1327 82.571 31.646 83.0267 31.0703H83.0915V31.7342C83.0915 33.5271 82.1592 34.4778 80.6646 34.4778C79.4512 34.4778 78.6925 33.5709 78.3896 32.8182L76.6568 33.5709C77.1545 34.8102 78.4769 36.3368 80.6646 36.3368C83.0042 36.3368 84.9763 34.9204 84.9763 31.4909V23.1044H83.0915V23.8572ZM80.8164 30.2967C79.4512 30.2967 78.3035 29.1236 78.3035 27.487C78.3035 25.8504 79.4521 24.655 80.8164 24.655C82.1604 24.655 83.2433 25.8504 83.2433 27.487C83.2424 29.1016 82.1592 30.2967 80.8164 30.2967ZM106.707 18.1706H101.941V31.8452H103.934V26.6669H106.707C108.917 26.6669 111.084 25.0291 111.084 22.4187C111.084 19.8082 108.917 18.1704 106.707 18.1704V18.1706ZM106.772 24.7652H103.955V20.0732H106.772C108.245 20.0732 109.112 21.3345 109.112 22.4185C109.091 23.4807 108.246 24.7652 106.772 24.7652ZM119.036 22.795C117.606 22.795 116.111 23.4368 115.504 24.8973L117.259 25.65C117.65 24.8973 118.343 24.654 119.08 24.654C120.12 24.654 121.16 25.2956 121.181 26.4236V26.5569C120.812 26.3357 120.055 26.0253 119.101 26.0253C117.195 26.0253 115.266 27.1095 115.266 29.1016C115.266 30.9383 116.826 32.1107 118.559 32.1107C119.903 32.1107 120.639 31.4909 121.094 30.7612H121.159V31.8234H123.086V26.5787C123.065 24.1673 121.31 22.7948 119.036 22.7948V22.795ZM118.797 30.2747C118.147 30.2747 117.237 29.9423 117.237 29.1246C117.237 28.0624 118.363 27.6641 119.338 27.6641C120.205 27.6641 120.617 27.8633 121.159 28.1286C121.007 29.3899 119.945 30.2747 118.797 30.2747ZM130.042 23.1056L127.767 29.0134H127.702L125.341 23.1054H123.196L126.749 31.3807L124.734 36.0056H126.814L132.252 23.1054H130.041L130.042 23.1056ZM112.189 31.8452H114.183V18.1704H112.189V31.8452Z" fill="white"/>
<path d="M46.0594 13.8634C45.4574 13.8634 44.9026 13.717 44.3949 13.4243C43.8873 13.1316 43.483 12.7314 43.182 12.2237C42.8869 11.71 42.7393 11.1395 42.7393 10.5123C42.7393 9.88512 42.8869 9.31765 43.182 8.80992C43.483 8.29621 43.8873 7.89301 44.3949 7.60032C44.9026 7.30762 45.4574 7.16128 46.0594 7.16128C46.5375 7.16128 46.9832 7.24789 47.3964 7.42112C47.8095 7.59434 48.1548 7.83626 48.4323 8.14688L47.7417 8.84576C47.5351 8.6128 47.2872 8.4336 46.9979 8.30816C46.7146 8.18272 46.3988 8.12 46.0506 8.12C45.6433 8.12 45.2626 8.21856 44.9085 8.41568C44.5543 8.6128 44.271 8.89354 44.0585 9.25792C43.846 9.62229 43.7398 10.0404 43.7398 10.5123C43.7398 10.9842 43.846 11.4023 44.0585 11.7667C44.271 12.1311 44.5543 12.4118 44.9085 12.609C45.2626 12.8061 45.6463 12.9046 46.0594 12.9046C46.4372 12.9046 46.753 12.8479 47.0068 12.7344C47.2606 12.6209 47.4879 12.4686 47.6885 12.2774C47.8184 12.146 47.9276 11.9818 48.0161 11.7846C48.1106 11.5875 48.1725 11.3725 48.2021 11.1395H46.0506V10.2435H49.1406C49.1701 10.4108 49.1848 10.584 49.1848 10.7632C49.1848 11.1694 49.1228 11.5606 48.9989 11.937C48.8749 12.3073 48.6772 12.6299 48.4057 12.9046C47.8095 13.5438 47.0275 13.8634 46.0594 13.8634Z" fill="white"/>
<path d="M50.1082 7.30464H53.9596V8.26336H51.0998V10.0374H53.6762V10.9872H51.0998V12.7613H53.9596V13.72H50.1082V7.30464Z" fill="white"/>
<path d="M56.2546 8.26336H54.4839V7.30464H59.017V8.26336H57.2462V13.72H56.2546V8.26336Z" fill="white"/>
<path d="M61.6094 7.30464H62.601V13.72H61.6094V7.30464Z" fill="white"/>
<path d="M65.1101 8.26336H63.3393V7.30464H67.8725V8.26336H66.1017V13.72H65.1101V8.26336Z" fill="white"/>
<path d="M73.258 13.8634C72.6441 13.8634 72.0863 13.717 71.5846 13.4243C71.0829 13.1257 70.6874 12.7195 70.3982 12.2058C70.1149 11.6921 69.9732 11.1276 69.9732 10.5123C69.9732 9.89706 70.1149 9.33557 70.3982 8.82784C70.6874 8.31413 71.0829 7.90794 71.5846 7.60928C72.0863 7.31061 72.6441 7.16128 73.258 7.16128C73.8718 7.16128 74.4267 7.31061 74.9225 7.60928C75.4242 7.90794 75.8197 8.31413 76.1089 8.82784C76.3981 9.33557 76.5427 9.89706 76.5427 10.5123C76.5427 11.1276 76.3981 11.6921 76.1089 12.2058C75.8256 12.7195 75.433 13.1257 74.9313 13.4243C74.4296 13.717 73.8718 13.8634 73.258 13.8634ZM73.258 12.9046C73.6771 12.9046 74.0607 12.8031 74.409 12.6C74.7572 12.3969 75.0317 12.1162 75.2324 11.7578C75.433 11.3934 75.5334 10.9782 75.5334 10.5123C75.5334 10.0464 75.433 9.63424 75.2324 9.27584C75.0317 8.91146 74.7572 8.62773 74.409 8.42464C74.0607 8.22154 73.6771 8.12 73.258 8.12C72.8389 8.12 72.4552 8.22154 72.107 8.42464C71.7587 8.62773 71.4813 8.91146 71.2747 9.27584C71.074 9.63424 70.9737 10.0464 70.9737 10.5123C70.9737 10.9782 71.074 11.3934 71.2747 11.7578C71.4813 12.1162 71.7587 12.3969 72.107 12.6C72.4552 12.8031 72.8389 12.9046 73.258 12.9046Z" fill="white"/>
<path d="M77.4545 7.30464H78.6321L81.4653 11.9728H81.5184L81.4653 10.7363V7.30464H82.448V13.72H81.4121L78.4373 8.80992H78.3842L78.4373 10.0464V13.72H77.4545V7.30464Z" fill="white"/>
</g>
<defs>
<clipPath id="clip0_1_211">
<rect width="140" height="42" fill="white"/>
</clipPath>
</defs>
</svg>
