<svg width="215" height="50" viewBox="0 0 215 50" fill="none" xmlns="http://www.w3.org/2000/svg">
<path fill-rule="evenodd" clip-rule="evenodd" d="M63.8004 18.2484C63.8004 15.8617 65.8604 13.997 69.0924 13.997C71.6496 13.997 73.9582 14.8548 76.2668 16.8313L77.9006 14.5564C75.3789 12.4307 72.7862 11.3492 69.1634 11.3492C64.4397 11.3492 60.9945 14.3327 60.9945 18.5095C60.9945 22.8354 63.6228 24.7747 69.341 26.0799C74.562 27.236 75.8051 28.6158 75.8051 31.0771C75.8051 33.7249 73.6031 35.5523 70.2645 35.5523C66.8193 35.5523 64.3331 34.3216 61.7404 31.8603L60.0001 34.0233C62.9835 36.8202 66.2155 38.2001 70.1579 38.2001C75.0948 38.2001 78.6465 35.2912 78.6465 30.7788C78.6465 26.7512 76.0892 24.6255 70.5486 23.3575C65.079 22.1269 63.8004 20.747 63.8004 18.2484ZM108.525 33.6876L106.678 31.7857C104.298 34.1724 102.061 35.5523 98.651 35.5523C93.1814 35.5523 89.0259 30.8161 89.0259 24.7374C89.0259 18.6586 93.1459 13.997 98.651 13.997C102.025 13.997 104.369 15.4887 106.465 17.5771L108.383 15.4142C105.896 12.9528 103.197 11.2747 98.6865 11.2747C91.37 11.2747 86.1135 17.3534 86.1135 24.812C86.1135 32.3451 91.4055 38.2747 98.5799 38.2747C103.091 38.2747 105.932 36.4473 108.525 33.6876ZM137.373 37.8271H133.928L126.718 27.6835H119.614V37.8271H116.809V11.7222H127.499C132.969 11.7222 136.485 14.8175 136.485 19.5164C136.485 23.8796 133.644 26.4155 129.737 27.1614L137.373 37.8271ZM133.644 19.6283C133.644 16.3838 131.3 14.4445 127.286 14.4445H119.614V25.0357H127.251C130.98 25.0357 133.644 23.0219 133.644 19.6283ZM147.81 11.7222V37.8271H150.616V11.7222H147.81ZM171.632 11.7222C176.534 11.7222 179.73 14.2581 179.73 18.2484C179.73 21.6794 177.741 23.4321 175.788 24.3271C178.736 25.2595 181.115 27.0495 181.115 30.6669C181.115 35.1794 177.528 37.8271 172.094 37.8271H161.048V11.7222H171.632ZM171.179 23.3575C174.553 23.3575 176.897 21.7539 176.897 18.6586C176.897 16.0481 174.944 14.37 171.392 14.37H163.827V23.3575H171.179ZM172.173 35.1794C175.938 35.1794 178.282 33.4266 178.282 30.4805C178.282 27.6089 176.009 25.968 171.676 25.968H163.827V35.1794H172.173ZM211.034 24.812C211.034 18.9943 207.021 14.4445 200.734 14.4445H194.909V35.1048H200.734C207.021 35.1048 211.034 30.6296 211.034 24.812ZM213.947 24.7374C213.947 32.1213 208.548 37.8271 200.734 37.8271H192.104V11.7222H200.734C208.548 11.7222 213.947 17.3534 213.947 24.7374Z" fill="black"/>
<path fill-rule="evenodd" clip-rule="evenodd" d="M4.25371 24.6096C5.86745 26.6213 7.98743 27.627 10.611 27.627C12.8071 27.627 14.5354 26.9288 15.7973 25.5319C17.0584 24.1354 17.6899 22.4633 17.6899 20.5154C17.6899 18.5167 17.0769 16.9468 15.8533 15.8066C14.6297 14.6661 13.3243 14.0958 11.9368 14.0958C11.5078 14.0958 10.9394 14.1726 10.233 14.3267C9.5516 14.5058 9.09794 14.5954 8.87054 14.5954C7.86068 14.5954 7.35707 13.9551 7.35707 12.6735C7.35707 10.5207 8.37904 8.6696 10.4222 7.1186C11.02 6.66552 11.6337 6.27316 12.2596 5.93422C14.0564 5.07955 16.195 4.61072 18.5927 4.61072C23.2106 4.61072 27.3594 5.88003 30.9547 8.3883L28.2514 12.4696L32.0002 15.0697L37.0842 7.44794L35.4985 6.10676C30.7076 2.05442 25.0196 0 18.5927 0C8.68249 0 1.76141 6.38076 1.76141 15.5177V15.6426C1.77768 15.8174 1.77125 15.9907 1.77125 16.1686C1.77125 19.7564 2.63847 22.5978 4.25371 24.6096Z" fill="black"/>
<path fill-rule="evenodd" clip-rule="evenodd" d="M24.6695 24.3173C23.4084 25.7138 22.7769 27.3863 22.7769 29.3339C22.7769 31.3325 23.3899 32.9024 24.6135 34.0426C25.8367 35.1831 27.1425 35.753 28.5303 35.753C28.959 35.753 29.5273 35.677 30.2337 35.5225C30.9152 35.3434 31.3688 35.2539 31.5966 35.2539C32.6061 35.2539 33.1097 35.8941 33.1097 37.1757C33.1097 37.6376 33.0598 38.0845 32.9655 38.5184C31.2852 42.8432 26.9787 45.315 20.7481 45.315C15.457 45.315 10.3839 43.5484 6.25099 40.303L9.64581 36.1432L6.10922 33.2522L0 40.8372L1.55395 42.2987C6.7826 47.2168 13.5992 49.9257 20.7481 49.9257C21.5449 49.9257 22.3179 49.8865 23.0713 49.8181C27.1875 49.6244 31.2935 48.0085 34.1888 45.2677C37.1533 42.4616 38.6354 38.5845 38.6354 33.6391C38.6354 30.0513 37.8283 27.2514 36.2131 25.24C34.5993 23.2279 32.4793 22.2222 29.8558 22.2222C27.6597 22.2222 25.9313 22.9204 24.6695 24.3173Z" fill="black"/>
</svg>
