<svg width="40" height="40" viewBox="0 0 40 40" fill="none" xmlns="http://www.w3.org/2000/svg">
<g clip-path="url(#clip0_1_294)">
<path d="M20 37.5C15.3587 37.5 10.9075 35.6563 7.62563 32.3744C4.34374 29.0925 2.5 24.6413 2.5 20C2.5 15.3587 4.34374 10.9075 7.62563 7.62563C10.9075 4.34374 15.3587 2.5 20 2.5C24.6413 2.5 29.0925 4.34374 32.3744 7.62563C35.6563 10.9075 37.5 15.3587 37.5 20C37.5 24.6413 35.6563 29.0925 32.3744 32.3744C29.0925 35.6563 24.6413 37.5 20 37.5ZM20 40C25.3043 40 30.3914 37.8929 34.1421 34.1421C37.8929 30.3914 40 25.3043 40 20C40 14.6957 37.8929 9.60859 34.1421 5.85786C30.3914 2.10714 25.3043 0 20 0C14.6957 0 9.60859 2.10714 5.85786 5.85786C2.10714 9.60859 0 14.6957 0 20C0 25.3043 2.10714 30.3914 5.85786 34.1421C9.60859 37.8929 14.6957 40 20 40Z" fill="#2A3036"/>
<path d="M15.6775 12.6375C15.882 12.5322 16.1115 12.4853 16.3409 12.5021C16.5702 12.5189 16.7905 12.5986 16.9775 12.7325L25.7275 18.9825C25.8895 19.0981 26.0216 19.2508 26.1127 19.4277C26.2039 19.6047 26.2514 19.8009 26.2514 20C26.2514 20.199 26.2039 20.3952 26.1127 20.5722C26.0216 20.7492 25.8895 20.9018 25.7275 21.0175L16.9775 27.2675C16.7906 27.4012 16.5704 27.4809 16.3412 27.4977C16.1119 27.5144 15.8825 27.4676 15.6781 27.3625C15.4737 27.2573 15.3023 27.0978 15.1826 26.9016C15.063 26.7053 14.9998 26.4798 15 26.25V13.75C14.9998 13.5202 15.0629 13.2948 15.1824 13.0985C15.3019 12.9022 15.4732 12.7427 15.6775 12.6375Z" fill="#2A3036"/>
</g>
<defs>
<clipPath id="clip0_1_294">
<rect width="40" height="40" fill="white"/>
</clipPath>
</defs>
</svg>
